  0
SECTION
  2
HEADER
  9
$ACADVER
  1
AC1024
  9
$ACADMAINTVER
 70
6
  9
$DWGCODEPAGE
  3
ANSI_1252
  9
$LASTSAVEDBY
  1
ezdxf
  9
$INSBASE
 10
0.0
 20
0.0
 30
0.0
  9
$EXTMIN
 10
1e+20
 20
1e+20
 30
1e+20
  9
$EXTMAX
 10
-1e+20
 20
-1e+20
 30
-1e+20
  9
$LIMMIN
 10
0.0
 20
0.0
  9
$LIMMAX
 10
420.0
 20
297.0
  9
$ORTHOMODE
 70
0
  9
$REGENMODE
 70
1
  9
$FILLMODE
 70
1
  9
$QTEXTMODE
 70
0
  9
$MIRRTEXT
 70
1
  9
$LTSCALE
 40
1.0
  9
$ATTMODE
 70
1
  9
$TEXTSIZE
 40
2.5
  9
$TRACEWID
 40
1.0
  9
$TEXTSTYLE
  7
OpenSans
  9
$CLAYER
  8
0
  9
$CELTYPE
  6
ByLayer
  9
$CECOLOR
 62
256
  9
$CELTSCALE
 40
1.0
  9
$DISPSILH
 70
0
  9
$DIMSCALE
 40
1.0
  9
$DIMASZ
 40
0.175
  9
$DIMEXO
 40
0.125
  9
$DIMDLI
 40
3.75
  9
$DIMRND
 40
0.0
  9
$DIMDLE
 40
0.0
  9
$DIMEXE
 40
0.375
  9
$DIMTP
 40
0.0
  9
$DIMTM
 40
0.0
  9
$DIMTXT
 40
0.25
  9
$DIMCEN
 40
2.5
  9
$DIMTSZ
 40
0.0
  9
$DIMTOL
 70
0
  9
$DIMLIM
 70
0
  9
$DIMTIH
 70
0
  9
$DIMTOH
 70
0
  9
$DIMSE1
 70
0
  9
$DIMSE2
 70
0
  9
$DIMTAD
 70
1
  9
$DIMZIN
 70
12
  9
$DIMBLK
  1
ARCHTICK
  9
$DIMASO
 70
1
  9
$DIMSHO
 70
1
  9
$DIMPOST
  1

  9
$DIMAPOST
  1

  9
$DIMALT
 70
0
  9
$DIMALTD
 70
3
  9
$DIMALTF
 40
0.03937007874
  9
$DIMLFAC
 40
100.0
  9
$DIMTOFL
 70
1
  9
$DIMTVP
 40
0.0
  9
$DIMTIX
 70
0
  9
$DIMSOXD
 70
0
  9
$DIMSAH
 70
0
  9
$DIMBLK1
  1

  9
$DIMBLK2
  1

  9
$DIMSTYLE
  2
EZDXF
  9
$DIMCLRD
 70
0
  9
$DIMCLRE
 70
0
  9
$DIMCLRT
 70
0
  9
$DIMTFAC
 40
0.5
  9
$DIMGAP
 40
0.1
  9
$DIMJUST
 70
0
  9
$DIMSD1
 70
0
  9
$DIMSD2
 70
0
  9
$DIMTOLJ
 70
0
  9
$DIMTZIN
 70
8
  9
$DIMALTZ
 70
0
  9
$DIMALTTZ
 70
0
  9
$DIMUPT
 70
1
  9
$DIMDEC
 70
2
  9
$DIMTDEC
 70
2
  9
$DIMALTU
 70
2
  9
$DIMALTTD
 70
3
  9
$DIMTXSTY
  7
OpenSansCondensed-Light
  9
$DIMAUNIT
 70
0
  9
$DIMADEC
 70
2
  9
$DIMALTRND
 40
0.0
  9
$DIMAZIN
 70
3
  9
$DIMDSEP
 70
46
  9
$DIMATFIT
 70
3
  9
$DIMFRAC
 70
0
  9
$DIMLDRBLK
  1

  9
$DIMLUNIT
 70
2
  9
$DIMLWD
 70
-2
  9
$DIMLWE
 70
-2
  9
$DIMTMOVE
 70
2
  9
$DIMFXL
 40
1.0
  9
$DIMFXLON
 70
0
  9
$DIMJOGANG
 40
0.785398163397
  9
$DIMTFILL
 70
0
  9
$DIMTFILLCLR
 70
0
  9
$DIMARCSYM
 70
0
  9
$DIMLTYPE
  6

  9
$DIMLTEX1
  6

  9
$DIMLTEX2
  6

  9
$DIMTXTDIRECTION
 70
0
  9
$LUNITS
 70
2
  9
$LUPREC
 70
4
  9
$SKETCHINC
 40
1.0
  9
$FILLETRAD
 40
10.0
  9
$AUNITS
 70
0
  9
$AUPREC
 70
2
  9
$MENU
  1
.
  9
$ELEVATION
 40
0.0
  9
$PELEVATION
 40
0.0
  9
$THICKNESS
 40
0.0
  9
$LIMCHECK
 70
0
  9
$CHAMFERA
 40
0.0
  9
$CHAMFERB
 40
0.0
  9
$CHAMFERC
 40
0.0
  9
$CHAMFERD
 40
0.0
  9
$SKPOLY
 70
0
  9
$TDCREATE
 40
2461314.539837963
  9
$TDUCREATE
 40
2458532.153996898
  9
$TDUPDATE
 40
2461314.539837963
  9
$TDUUPDATE
 40
2458532.1544311
  9
$TDINDWG
 40
0.0
  9
$TDUSRTIMER
 40
0.0
  9
$USRTIMER
 70
1
  9
$ANGBASE
 50
0.0
  9
$ANGDIR
 70
0
  9
$PDMODE
 70
0
  9
$PDSIZE
 40
0.0
  9
$PLINEWID
 40
0.0
  9
$SPLFRAME
 70
0
  9
$SPLINETYPE
 70
6
  9
$SPLINESEGS
 70
8
  9
$HANDSEED
  5
AC
  9
$SURFTAB1
 70
6
  9
$SURFTAB2
 70
6
  9
$SURFTYPE
 70
6
  9
$SURFU
 70
6
  9
$SURFV
 70
6
  9
$UCSBASE
  2

  9
$UCSNAME
  2

  9
$UCSORG
 10
0.0
 20
0.0
 30
0.0
  9
$UCSXDIR
 10
1.0
 20
0.0
 30
0.0
  9
$UCSYDIR
 10
0.0
 20
1.0
 30
0.0
  9
$UCSORTHOREF
  2

  9
$UCSORTHOVIEW
 70
0
  9
$UCSORGTOP
 10
0.0
 20
0.0
 30
0.0
  9
$UCSORGBOTTOM
 10
0.0
 20
0.0
 30
0.0
  9
$UCSORGLEFT
 10
0.0
 20
0.0
 30
0.0
  9
$UCSORGRIGHT
 10
0.0
 20
0.0
 30
0.0
  9
$UCSORGFRONT
 10
0.0
 20
0.0
 30
0.0
  9
$UCSORGBACK
 10
0.0
 20
0.0
 30
0.0
  9
$PUCSBASE
  2

  9
$PUCSNAME
  2

  9
$PUCSORG
 10
0.0
 20
0.0
 30
0.0
  9
$PUCSXDIR
 10
1.0
 20
0.0
 30
0.0
  9
$PUCSYDIR
 10
0.0
 20
1.0
 30
0.0
  9
$PUCSORTHOREF
  2

  9
$PUCSORTHOVIEW
 70
0
  9
$PUCSORGTOP
 10
0.0
 20
0.0
 30
0.0
  9
$PUCSORGBOTTOM
 10
0.0
 20
0.0
 30
0.0
  9
$PUCSORGLEFT
 10
0.0
 20
0.0
 30
0.0
  9
$PUCSORGRIGHT
 10
0.0
 20
0.0
 30
0.0
  9
$PUCSORGFRONT
 10
0.0
 20
0.0
 30
0.0
  9
$PUCSORGBACK
 10
0.0
 20
0.0
 30
0.0
  9
$USERI1
 70
0
  9
$USERI2
 70
0
  9
$USERI3
 70
0
  9
$USERI4
 70
0
  9
$USERI5
 70
0
  9
$USERR1
 40
0.0
  9
$USERR2
 40
0.0
  9
$USERR3
 40
0.0
  9
$USERR4
 40
0.0
  9
$USERR5
 40
0.0
  9
$WORLDVIEW
 70
1
  9
$SHADEDGE
 70
3
  9
$SHADEDIF
 70
70
  9
$TILEMODE
 70
1
  9
$MAXACTVP
 70
64
  9
$PINSBASE
 10
0.0
 20
0.0
 30
0.0
  9
$PLIMCHECK
 70
0
  9
$PEXTMIN
 10
1e+20
 20
1e+20
 30
1e+20
  9
$PEXTMAX
 10
-1e+20
 20
-1e+20
 30
-1e+20
  9
$PLIMMIN
 10
0.0
 20
0.0
  9
$PLIMMAX
 10
420.0
 20
297.0
  9
$UNITMODE
 70
0
  9
$VISRETAIN
 70
1
  9
$PLINEGEN
 70
0
  9
$PSLTSCALE
 70
1
  9
$TREEDEPTH
 70
3020
  9
$CMLSTYLE
  2
Standard
  9
$CMLJUST
 70
0
  9
$CMLSCALE
 40
20.0
  9
$PROXYGRAPHICS
 70
1
  9
$MEASUREMENT
 70
1
  9
$CELWEIGHT
370
-1
  9
$ENDCAPS
280
0
  9
$JOINSTYLE
280
0
  9
$LWDISPLAY
290
0
  9
$INSUNITS
 70
4
  9
$HYPERLINKBASE
  1

  9
$STYLESHEET
  1

  9
$XEDIT
290
1
  9
$CEPSNTYPE
380
0
  9
$PSTYLEMODE
290
1
  9
$FINGERPRINTGUID
  2
{CAFCA9ED-5A60-4C99-9479-B7130CD4242A}
  9
$VERSIONGUID
  2
{C47F418E-14D1-4785-8D25-1A884D1616F4}
  9
$EXTNAMES
290
1
  9
$PSVPSCALE
 40
0.0
  9
$OLESTARTUP
290
0
  9
$SORTENTS
280
127
  9
$INDEXCTL
280
0
  9
$HIDETEXT
280
1
  9
$XCLIPFRAME
280
1
  9
$HALOGAP
280
0
  9
$OBSCOLOR
 70
257
  9
$OBSLTYPE
280
0
  9
$INTERSECTIONDISPLAY
280
0
  9
$INTERSECTIONCOLOR
 70
257
  9
$DIMASSOC
280
2
  9
$PROJECTNAME
  1

  9
$CAMERADISPLAY
290
0
  9
$LENSLENGTH
 40
50.0
  9
$CAMERAHEIGHT
 40
0.0
  9
$STEPSPERSEC
 40
24.0
  9
$STEPSIZE
 40
100.0
  9
$3DDWFPREC
 40
2.0
  9
$PSOLWIDTH
 40
0.005
  9
$PSOLHEIGHT
 40
0.08
  9
$LOFTANG1
 40
1.570796326795
  9
$LOFTANG2
 40
1.570796326795
  9
$LOFTMAG1
 40
0.0
  9
$LOFTMAG2
 40
0.0
  9
$LOFTPARAM
 70
7
  9
$LOFTNORMALS
280
1
  9
$LATITUDE
 40
37.795
  9
$LONGITUDE
 40
-122.394
  9
$NORTHDIRECTION
 40
0.0
  9
$TIMEZONE
 70
-8000
  9
$LIGHTGLYPHDISPLAY
280
1
  9
$TILEMODELIGHTSYNCH
280
1
  9
$CMATERIAL
347
20
  9
$SOLIDHIST
280
0
  9
$SHOWHIST
280
1
  9
$DWFFRAME
280
2
  9
$DGNFRAME
280
2
  9
$REALWORLDSCALE
290
1
  9
$INTERFERECOLOR
 62
256
  9
$CSHADOW
280
0
  9
$SHADOWPLANELOCATION
 40
0.0
  0
ENDSEC
  0
SECTION
  2
CLASSES
  0
CLASS
  1
ACDBDICTIONARYWDFLT
  2
AcDbDictionaryWithDefault
  3
ObjectDBX Classes
 90
0
 91
0
280
0
281
0
  0
CLASS
  1
SUN
  2
AcDbSun
  3
SCENEOE
 90
1153
 91
0
280
0
281
0
  0
CLASS
  1
VISUALSTYLE
  2
AcDbVisualStyle
  3
ObjectDBX Classes
 90
4095
 91
0
280
0
281
0
  0
CLASS
  1
MATERIAL
  2
AcDbMaterial
  3
ObjectDBX Classes
 90
1153
 91
0
280
0
281
0
  0
CLASS
  1
SCALE
  2
AcDbScale
  3
ObjectDBX Classes
 90
1153
 91
0
280
0
281
0
  0
CLASS
  1
TABLESTYLE
  2
AcDbTableStyle
  3
ObjectDBX Classes
 90
4095
 91
0
280
0
281
0
  0
CLASS
  1
MLEADERSTYLE
  2
AcDbMLeaderStyle
  3
ACDB_MLEADERSTYLE_CLASS
 90
4095
 91
0
280
0
281
0
  0
CLASS
  1
DICTIONARYVAR
  2
AcDbDictionaryVar
  3
ObjectDBX Classes
 90
0
 91
0
280
0
281
0
  0
CLASS
  1
CELLSTYLEMAP
  2
AcDbCellStyleMap
  3
ObjectDBX Classes
 90
1152
 91
0
280
0
281
0
  0
CLASS
  1
MENTALRAYRENDERSETTINGS
  2
AcDbMentalRayRenderSettings
  3
SCENEOE
 90
1024
 91
0
280
0
281
0
  0
CLASS
  1
ACDBDETAILVIEWSTYLE
  2
AcDbDetailViewStyle
  3
ObjectDBX Classes
 90
1025
 91
0
280
0
281
0
  0
CLASS
  1
ACDBSECTIONVIEWSTYLE
  2
AcDbSectionViewStyle
  3
ObjectDBX Classes
 90
1025
 91
0
280
0
281
0
  0
CLASS
  1
RASTERVARIABLES
  2
AcDbRasterVariables
  3
ISM
 90
0
 91
0
280
0
281
0
  0
CLASS
  1
ACDBPLACEHOLDER
  2
AcDbPlaceHolder
  3
ObjectDBX Classes
 90
0
 91
0
280
0
281
0
  0
CLASS
  1
LAYOUT
  2
AcDbLayout
  3
ObjectDBX Classes
 90
0
 91
0
280
0
281
0
  0
ENDSEC
  0
SECTION
  2
TABLES
  0
TABLE
  2
VPORT
  5
8
330
0
100
AcDbSymbolTable
 70
1
  0
VPORT
  5
23
330
8
100
AcDbSymbolTableRecord
100
AcDbViewportTableRecord
  2
*Active
 70
0
 10
0.0
 20
0.0
 11
1.0
 21
1.0
 12
0.0
 22
0.0
 13
0.0
 23
0.0
 14
0.5
 24
0.5
 15
0.5
 25
0.5
 16
0.0
 26
0.0
 36
1.0
 17
0.0
 27
0.0
 37
0.0
 40
1000.0
 41
1.34
 42
50.0
 43
0.0
 44
0.0
 50
0.0
 51
0.0
 71
0
 72
1000
 73
1
 74
3
 75
0
 76
0
 77
0
 78
0
281
0
 65
0
146
0.0
  0
ENDTAB
  0
TABLE
  2
LTYPE
  5
2
330
0
100
AcDbSymbolTable
 70
21
  0
LTYPE
  5
24
330
2
100
AcDbSymbolTableRecord
100
AcDbLinetypeTableRecord
  2
ByBlock
 70
0
  3

 72
65
 73
0
 40
0.0
  0
LTYPE
  5
25
330
2
100
AcDbSymbolTableRecord
100
AcDbLinetypeTableRecord
  2
ByLayer
 70
0
  3

 72
65
 73
0
 40
0.0
  0
LTYPE
  5
26
330
2
100
AcDbSymbolTableRecord
100
AcDbLinetypeTableRecord
  2
Continuous
 70
0
  3

 72
65
 73
0
 40
0.0
  0
LTYPE
  5
2F
330
2
100
AcDbSymbolTableRecord
100
AcDbLinetypeTableRecord
  2
CENTER
 70
0
  3
Center ____ _ ____ _ ____ _ ____ _ ____ _ ____
 72
65
 73
4
 40
5.08
 49
3.175
 74
0
 49
-0.635
 74
0
 49
0.635
 74
0
 49
-0.635
 74
0
  0
LTYPE
  5
30
330
2
100
AcDbSymbolTableRecord
100
AcDbLinetypeTableRecord
  2
CENTERX2
 70
0
  3
Center (2x) ________  __  ________  __  ________
 72
65
 73
4
 40
8.89
 49
6.35
 74
0
 49
-0.635
 74
0
 49
1.27
 74
0
 49
-0.635
 74
0
  0
LTYPE
  5
31
330
2
100
AcDbSymbolTableRecord
100
AcDbLinetypeTableRecord
  2
CENTER2
 70
0
  3
Center (.5x) ____ _ ____ _ ____ _ ____ _ ____
 72
65
 73
4
 40
2.54
 49
1.587
 74
0
 49
-0.318
 74
0
 49
0.318
 74
0
 49
-0.318
 74
0
  0
LTYPE
  5
32
330
2
100
AcDbSymbolTableRecord
100
AcDbLinetypeTableRecord
  2
DASHED
 70
0
  3
Dashed __ __ __ __ __ __ __ __ __ __ __ __ __ _
 72
65
 73
2
 40
1.524
 49
1.27
 74
0
 49
-0.254
 74
0
  0
LTYPE
  5
33
330
2
100
AcDbSymbolTableRecord
100
AcDbLinetypeTableRecord
  2
DASHEDX2
 70
0
  3
Dashed (2x) ____  ____  ____  ____  ____  ____
 72
65
 73
2
 40
3.048
 49
2.54
 74
0
 49
-0.508
 74
0
  0
LTYPE
  5
34
330
2
100
AcDbSymbolTableRecord
100
AcDbLinetypeTableRecord
  2
DASHED2
 70
0
  3
Dashed (.5x) _ _ _ _ _ _ _ _ _ _ _ _ _ _
 72
65
 73
2
 40
0.762
 49
0.635
 74
0
 49
-0.127
 74
0
  0
LTYPE
  5
35
330
2
100
AcDbSymbolTableRecord
100
AcDbLinetypeTableRecord
  2
PHANTOM
 70
0
  3
Phantom ______  __  __  ______  __  __  ______
 72
65
 73
6
 40
6.35
 49
3.175
 74
0
 49
-0.635
 74
0
 49
0.635
 74
0
 49
-0.635
 74
0
 49
0.635
 74
0
 49
-0.635
 74
0
  0
LTYPE
  5
36
330
2
100
AcDbSymbolTableRecord
100
AcDbLinetypeTableRecord
  2
PHANTOMX2
 70
0
  3
Phantom (2x)____________    ____    ____    ____________
 72
65
 73
6
 40
10.795
 49
6.35
 74
0
 49
-0.635
 74
0
 49
1.27
 74
0
 49
-0.635
 74
0
 49
1.27
 74
0
 49
-0.635
 74
0
  0
LTYPE
  5
37
330
2
100
AcDbSymbolTableRecord
100
AcDbLinetypeTableRecord
  2
PHANTOM2
 70
0
  3
Phantom (.5x) ___ _ _ ___ _ _ ___ _ _ ___ _ _ ___
 72
65
 73
6
 40
3.175
 49
1.587
 74
0
 49
-0.318
 74
0
 49
0.318
 74
0
 49
-0.318
 74
0
 49
0.318
 74
0
 49
-0.318
 74
0
  0
LTYPE
  5
38
330
2
100
AcDbSymbolTableRecord
100
AcDbLinetypeTableRecord
  2
DASHDOT
 70
0
  3
Dash dot __ . __ . __ . __ . __ . __ . __ . __
 72
65
 73
4
 40
3.556
 49
2.54
 74
0
 49
-0.508
 74
0
 49
0.0
 74
0
 49
-0.508
 74
0
  0
LTYPE
  5
39
330
2
100
AcDbSymbolTableRecord
100
AcDbLinetypeTableRecord
  2
DASHDOTX2
 70
0
  3
Dash dot (2x) ____  .  ____  .  ____  .  ____
 72
65
 73
4
 40
6.096
 49
5.08
 74
0
 49
-0.508
 74
0
 49
0.0
 74
0
 49
-0.508
 74
0
  0
LTYPE
  5
3A
330
2
100
AcDbSymbolTableRecord
100
AcDbLinetypeTableRecord
  2
DASHDOT2
 70
0
  3
Dash dot (.5x) _ . _ . _ . _ . _ . _ . _ . _
 72
65
 73
4
 40
1.778
 49
1.27
 74
0
 49
-0.254
 74
0
 49
0.0
 74
0
 49
-0.254
 74
0
  0
LTYPE
  5
3B
330
2
100
AcDbSymbolTableRecord
100
AcDbLinetypeTableRecord
  2
DOT
 70
0
  3
Dot .  .  .  .  .  .  .  .  .  .  .  .  .  .  .  .
 72
65
 73
2
 40
0.508
 49
0.0
 74
0
 49
-0.508
 74
0
  0
LTYPE
  5
3C
330
2
100
AcDbSymbolTableRecord
100
AcDbLinetypeTableRecord
  2
DOTX2
 70
0
  3
Dot (2x) .    .    .    .    .    .    .    . 
 72
65
 73
2
 40
1.016
 49
0.0
 74
0
 49
-1.016
 74
0
  0
LTYPE
  5
3D
330
2
100
AcDbSymbolTableRecord
100
AcDbLinetypeTableRecord
  2
DOT2
 70
0
  3
Dot (.5) . . . . . . . . . . . . . . . . . . . 
 72
65
 73
2
 40
0.254
 49
0.0
 74
0
 49
-0.254
 74
0
  0
LTYPE
  5
3E
330
2
100
AcDbSymbolTableRecord
100
AcDbLinetypeTableRecord
  2
DIVIDE
 70
0
  3
Divide __ . . __ . . __ . . __ . . __ . . __
 72
65
 73
6
 40
4.064
 49
2.54
 74
0
 49
-0.508
 74
0
 49
0.0
 74
0
 49
-0.508
 74
0
 49
0.0
 74
0
 49
-0.508
 74
0
  0
LTYPE
  5
3F
330
2
100
AcDbSymbolTableRecord
100
AcDbLinetypeTableRecord
  2
DIVIDEX2
 70
0
  3
Divide (2x) ____  . .  ____  . .  ____  . .  ____
 72
65
 73
6
 40
6.604
 49
5.08
 74
0
 49
-0.508
 74
0
 49
0.0
 74
0
 49
-0.508
 74
0
 49
0.0
 74
0
 49
-0.508
 74
0
  0
LTYPE
  5
40
330
2
100
AcDbSymbolTableRecord
100
AcDbLinetypeTableRecord
  2
DIVIDE2
 70
0
  3
Divide(.5x) _ . _ . _ . _ . _ . _ . _ . _
 72
65
 73
6
 40
2.032
 49
1.27
 74
0
 49
-0.254
 74
0
 49
0.0
 74
0
 49
-0.254
 74
0
 49
0.0
 74
0
 49
-0.254
 74
0
  0
ENDTAB
  0
TABLE
  2
LAYER
  5
1
330
0
100
AcDbSymbolTable
 70
3
  0
LAYER
  5
27
330
1
100
AcDbSymbolTableRecord
100
AcDbLayerTableRecord
  2
0
 70
0
 62
7
  6
Continuous
370
-3
390
13
347
21
  0
LAYER
  5
28
330
1
100
AcDbSymbolTableRecord
100
AcDbLayerTableRecord
  2
Defpoints
 70
0
 62
7
  6
Continuous
290
0
370
-3
390
13
347
21
  0
LAYER
  5
8A
330
1
100
AcDbSymbolTableRecord
100
AcDbLayerTableRecord
  2
CUT
 70
0
 62
7
  6
Continuous
370
-3
390
13
347
21
  0
ENDTAB
  0
TABLE
  2
STYLE
  5
5
330
0
100
AcDbSymbolTable
 70
26
  0
STYLE
  5
29
330
5
100
AcDbSymbolTableRecord
100
AcDbTextStyleTableRecord
  2
Standard
 70
0
 40
0.0
 41
1.0
 50
0.0
 71
0
 42
2.5
  3
txt
  4

  0
STYLE
  5
41
330
5
100
AcDbSymbolTableRecord
100
AcDbTextStyleTableRecord
  2
OpenSans-Light
 70
0
 40
0.0
 41
1.0
 50
0.0
 71
0
 42
2.5
  3
OpenSans-Light.ttf
  4

  0
STYLE
  5
42
330
5
100
AcDbSymbolTableRecord
100
AcDbTextStyleTableRecord
  2
OpenSans-Light-Italic
 70
0
 40
0.0
 41
1.0
 50
0.0
 71
0
 42
2.5
  3
OpenSans-LightItalic.ttf
  4

  0
STYLE
  5
43
330
5
100
AcDbSymbolTableRecord
100
AcDbTextStyleTableRecord
  2
OpenSans
 70
0
 40
0.0
 41
1.0
 50
0.0
 71
0
 42
2.5
  3
OpenSans-Regular.ttf
  4

  0
STYLE
  5
44
330
5
100
AcDbSymbolTableRecord
100
AcDbTextStyleTableRecord
  2
OpenSans-Italic
 70
0
 40
0.0
 41
1.0
 50
0.0
 71
0
 42
2.5
  3
OpenSans-Italic.ttf
  4

  0
STYLE
  5
45
330
5
100
AcDbSymbolTableRecord
100
AcDbTextStyleTableRecord
  2
OpenSans-SemiBold
 70
0
 40
0.0
 41
1.0
 50
0.0
 71
0
 42
2.5
  3
OpenSans-SemiBold.ttf
  4

  0
STYLE
  5
46
330
5
100
AcDbSymbolTableRecord
100
AcDbTextStyleTableRecord
  2
OpenSans-SemiBoldItalic
 70
0
 40
0.0
 41
1.0
 50
0.0
 71
0
 42
2.5
  3
OpenSans-SemiBoldItalic.ttf
  4

  0
STYLE
  5
47
330
5
100
AcDbSymbolTableRecord
100
AcDbTextStyleTableRecord
  2
OpenSans-Bold
 70
0
 40
0.0
 41
1.0
 50
0.0
 71
0
 42
2.5
  3
OpenSans-Bold.ttf
  4

  0
STYLE
  5
48
330
5
100
AcDbSymbolTableRecord
100
AcDbTextStyleTableRecord
  2
OpenSans-BoldItalic
 70
0
 40
0.0
 41
1.0
 50
0.0
 71
0
 42
2.5
  3
OpenSans-BoldItalic.ttf
  4

  0
STYLE
  5
49
330
5
100
AcDbSymbolTableRecord
100
AcDbTextStyleTableRecord
  2
OpenSans-ExtraBold
 70
0
 40
0.0
 41
1.0
 50
0.0
 71
0
 42
2.5
  3
OpenSans-ExtraBold.ttf
  4

  0
STYLE
  5
4A
330
5
100
AcDbSymbolTableRecord
100
AcDbTextStyleTableRecord
  2
OpenSans-ExtraBoldItalic
 70
0
 40
0.0
 41
1.0
 50
0.0
 71
0
 42
2.5
  3
OpenSans-ExtraBoldItalic.ttf
  4

  0
STYLE
  5
4B
330
5
100
AcDbSymbolTableRecord
100
AcDbTextStyleTableRecord
  2
OpenSansCondensed-Bold
 70
0
 40
0.0
 41
1.0
 50
0.0
 71
0
 42
2.5
  3
OpenSansCondensed-Bold.ttf
  4

  0
STYLE
  5
4C
330
5
100
AcDbSymbolTableRecord
100
AcDbTextStyleTableRecord
  2
OpenSansCondensed-Light
 70
0
 40
0.0
 41
1.0
 50
0.0
 71
0
 42
2.5
  3
OpenSansCondensed-Light.ttf
  4

  0
STYLE
  5
4D
330
5
100
AcDbSymbolTableRecord
100
AcDbTextStyleTableRecord
  2
OpenSansCondensed-Italic
 70
0
 40
0.0
 41
1.0
 50
0.0
 71
0
 42
2.5
  3
OpenSansCondensed-LightItalic.ttf
  4

  0
STYLE
  5
4E
330
5
100
AcDbSymbolTableRecord
100
AcDbTextStyleTableRecord
  2
LiberationSans
 70
0
 40
0.0
 41
1.0
 50
0.0
 71
0
 42
2.5
  3
LiberationSans-Regular.ttf
  4

  0
STYLE
  5
4F
330
5
100
AcDbSymbolTableRecord
100
AcDbTextStyleTableRecord
  2
LiberationSans-Bold
 70
0
 40
0.0
 41
1.0
 50
0.0
 71
0
 42
2.5
  3
LiberationSans-Bold.ttf
  4

  0
STYLE
  5
50
330
5
100
AcDbSymbolTableRecord
100
AcDbTextStyleTableRecord
  2
LiberationSans-BoldItalic
 70
0
 40
0.0
 41
1.0
 50
0.0
 71
0
 42
2.5
  3
LiberationSans-BoldItalic.ttf
  4

  0
STYLE
  5
51
330
5
100
AcDbSymbolTableRecord
100
AcDbTextStyleTableRecord
  2
LiberationSans-Italic
 70
0
 40
0.0
 41
1.0
 50
0.0
 71
0
 42
2.5
  3
LiberationSans-Italic.ttf
  4

  0
STYLE
  5
52
330
5
100
AcDbSymbolTableRecord
100
AcDbTextStyleTableRecord
  2
LiberationSerif
 70
0
 40
0.0
 41
1.0
 50
0.0
 71
0
 42
2.5
  3
LiberationSerif-Regular.ttf
  4

  0
STYLE
  5
53
330
5
100
AcDbSymbolTableRecord
100
AcDbTextStyleTableRecord
  2
LiberationSerif-Bold
 70
0
 40
0.0
 41
1.0
 50
0.0
 71
0
 42
2.5
  3
LiberationSerif-Bold.ttf
  4

  0
STYLE
  5
54
330
5
100
AcDbSymbolTableRecord
100
AcDbTextStyleTableRecord
  2
LiberationSerif-BoldItalic
 70
0
 40
0.0
 41
1.0
 50
0.0
 71
0
 42
2.5
  3
LiberationSerif-BoldItalic.ttf
  4

  0
STYLE
  5
55
330
5
100
AcDbSymbolTableRecord
100
AcDbTextStyleTableRecord
  2
LiberationSerif-Italic
 70
0
 40
0.0
 41
1.0
 50
0.0
 71
0
 42
2.5
  3
LiberationSerif-Italic.ttf
  4

  0
STYLE
  5
56
330
5
100
AcDbSymbolTableRecord
100
AcDbTextStyleTableRecord
  2
LiberationMono
 70
0
 40
0.0
 41
1.0
 50
0.0
 71
0
 42
2.5
  3
LiberationMono-Regular.ttf
  4

  0
STYLE
  5
57
330
5
100
AcDbSymbolTableRecord
100
AcDbTextStyleTableRecord
  2
LiberationMono-Bold
 70
0
 40
0.0
 41
1.0
 50
0.0
 71
0
 42
2.5
  3
LiberationMono-Bold.ttf
  4

  0
STYLE
  5
58
330
5
100
AcDbSymbolTableRecord
100
AcDbTextStyleTableRecord
  2
LiberationMono-BoldItalic
 70
0
 40
0.0
 41
1.0
 50
0.0
 71
0
 42
2.5
  3
LiberationMono-BoldItalic.ttf
  4

  0
STYLE
  5
59
330
5
100
AcDbSymbolTableRecord
100
AcDbTextStyleTableRecord
  2
LiberationMono-Italic
 70
0
 40
0.0
 41
1.0
 50
0.0
 71
0
 42
2.5
  3
LiberationMono-Italic.ttf
  4

  0
ENDTAB
  0
TABLE
  2
VIEW
  5
7
330
0
100
AcDbSymbolTable
 70
0
  0
ENDTAB
  0
TABLE
  2
UCS
  5
6
330
0
100
AcDbSymbolTable
 70
0
  0
ENDTAB
  0
TABLE
  2
APPID
  5
3
330
0
100
AcDbSymbolTable
 70
3
  0
APPID
  5
2A
330
3
100
AcDbSymbolTableRecord
100
AcDbRegAppTableRecord
  2
ACAD
 70
0
  0
APPID
  5
A9
330
3
100
AcDbSymbolTableRecord
100
AcDbRegAppTableRecord
  2
HATCHBACKGROUNDCOLOR
 70
0
  0
APPID
  5
AA
330
3
100
AcDbSymbolTableRecord
100
AcDbRegAppTableRecord
  2
EZDXF
 70
0
  0
ENDTAB
  0
TABLE
  2
DIMSTYLE
  5
4
330
0
100
AcDbSymbolTable
 70
12
100
AcDbDimStyleTable
  0
DIMSTYLE
105
2B
330
4
100
AcDbSymbolTableRecord
100
AcDbDimStyleTableRecord
  2
Standard
 70
0
 40
1.0
 41
2.5
 42
0.625
 43
3.75
 44
1.25
 45
0.0
 46
0.0
 47
0.0
 48
0.0
 49
2.5
140
2.5
141
2.5
142
0.0
143
0.03937007874
144
1.0
145
0.0
146
1.0
147
0.625
148
0.0
 69
0
 70
0
 71
0
 72
0
 73
0
 74
0
 75
0
 76
0
 77
1
 78
8
 79
3
170
0
171
3
172
1
173
0
174
0
175
0
176
0
177
0
178
0
179
2
271
2
272
2
273
2
274
3
275
0
276
0
277
2
278
44
279
0
280
0
281
0
282
0
283
0
284
8
285
0
286
0
288
0
289
3
290
0
371
-2
372
-2
  0
DIMSTYLE
105
73
330
4
100
AcDbSymbolTableRecord
100
AcDbDimStyleTableRecord
  2
EZDXF
 70
0
 40
1.0
 41
0.175
 42
0.125
 43
3.75
 44
0.375
 45
0.0
 46
0.0
 47
0.0
 48
0.0
 49
2.5
140
0.25
141
2.5
142
0.0
143
0.03937007874
144
100.0
145
0.0
146
0.5
147
0.1
148
0.0
 69
0
 70
0
 71
0
 72
0
 73
0
 74
0
 75
0
 76
0
 77
1
 78
12
 79
3
170
0
171
3
172
1
173
0
174
0
175
0
176
0
177
0
178
0
179
2
271
2
272
2
273
2
274
3
275
0
276
0
277
2
278
46
279
2
280
0
281
0
282
0
283
0
284
8
285
0
286
0
288
1
289
3
290
0
340
4C
342
74
371
-2
372
-2
  0
DIMSTYLE
105
7C
330
4
100
AcDbSymbolTableRecord
100
AcDbDimStyleTableRecord
  2
EZ_M_100_H25_CM
 70
0
 40
1.0
 41
0.25
 42
0.125
 43
3.75
 44
0.375
 45
0.0
 46
0.0
 47
0.0
 48
0.0
 49
2.5
140
0.25
141
2.5
142
0.125
143
0.03937007874
144
100.0
145
0.0
146
0.5
147
0.1
148
0.0
 69
0
 70
0
 71
0
 72
0
 73
0
 74
0
 75
0
 76
0
 77
1
 78
12
 79
3
170
0
171
3
172
1
173
0
174
0
175
0
176
0
177
0
178
0
179
2
271
2
272
2
273
2
274
3
275
0
276
0
277
2
278
46
279
2
280
0
281
0
282
0
283
0
284
8
285
0
286
0
288
1
289
3
290
0
340
4C
371
-2
372
-2
  0
DIMSTYLE
105
7D
330
4
100
AcDbSymbolTableRecord
100
AcDbDimStyleTableRecord
  2
EZ_M_50_H25_CM
 70
0
 40
1.0
 41
0.125
 42
0.0625
 43
3.75
 44
0.1875
 45
0.0
 46
0.0
 47
0.0
 48
0.0
 49
2.5
140
0.125
141
2.5
142
0.0625
143
0.03937007874
144
100.0
145
0.0
146
0.5
147
0.05
148
0.0
 69
0
 70
0
 71
0
 72
0
 73
0
 74
0
 75
0
 76
0
 77
1
 78
12
 79
3
170
0
171
3
172
1
173
0
174
0
175
0
176
0
177
0
178
0
179
2
271
2
272
2
273
2
274
3
275
0
276
0
277
2
278
46
279
2
280
0
281
0
282
0
283
0
284
8
285
0
286
0
288
1
289
3
290
0
340
4C
371
-2
372
-2
  0
DIMSTYLE
105
7E
330
4
100
AcDbSymbolTableRecord
100
AcDbDimStyleTableRecord
  2
EZ_M_25_H25_CM
 70
0
 40
1.0
 41
0.0625
 42
0.03125
 43
3.75
 44
0.09375
 45
0.0
 46
0.0
 47
0.0
 48
0.0
 49
2.5
140
0.0625
141
2.5
142
0.03125
143
0.03937007874
144
100.0
145
0.0
146
0.5
147
0.025
148
0.0
 69
0
 70
0
 71
0
 72
0
 73
0
 74
0
 75
0
 76
0
 77
1
 78
12
 79
3
170
0
171
3
172
1
173
0
174
0
175
0
176
0
177
0
178
0
179
2
271
2
272
2
273
2
274
3
275
0
276
0
277
2
278
46
279
2
280
0
281
0
282
0
283
0
284
8
285
0
286
0
288
1
289
3
290
0
340
4C
371
-2
372
-2
  0
DIMSTYLE
105
7F
330
4
100
AcDbSymbolTableRecord
100
AcDbDimStyleTableRecord
  2
EZ_M_20_H25_CM
 70
0
 40
1.0
 41
0.05
 42
0.025
 43
3.75
 44
0.07500000000000001
 45
0.0
 46
0.0
 47
0.0
 48
0.0
 49
2.5
140
0.05
141
2.5
142
0.025
143
0.03937007874
144
100.0
145
0.0
146
0.5
147
0.020000000000000004
148
0.0
 69
0
 70
0
 71
0
 72
0
 73
0
 74
0
 75
0
 76
0
 77
1
 78
12
 79
3
170
0
171
3
172
1
173
0
174
0
175
0
176
0
177
0
178
0
179
2
271
2
272
2
273
2
274
3
275
0
276
0
277
2
278
46
279
2
280
0
281
0
282
0
283
0
284
8
285
0
286
0
288
1
289
3
290
0
340
4C
371
-2
372
-2
  0
DIMSTYLE
105
80
330
4
100
AcDbSymbolTableRecord
100
AcDbDimStyleTableRecord
  2
EZ_M_10_H25_CM
 70
0
 40
1.0
 41
0.025
 42
0.0125
 43
3.75
 44
0.037500000000000006
 45
0.0
 46
0.0
 47
0.0
 48
0.0
 49
2.5
140
0.025
141
2.5
142
0.0125
143
0.03937007874
144
100.0
145
0.0
146
0.5
147
0.010000000000000002
148
0.0
 69
0
 70
0
 71
0
 72
0
 73
0
 74
0
 75
0
 76
0
 77
1
 78
12
 79
3
170
0
171
3
172
1
173
0
174
0
175
0
176
0
177
0
178
0
179
2
271
2
272
2
273
2
274
3
275
0
276
0
277
2
278
46
279
2
280
0
281
0
282
0
283
0
284
8
285
0
286
0
288
1
289
3
290
0
340
4C
371
-2
372
-2
  0
DIMSTYLE
105
81
330
4
100
AcDbSymbolTableRecord
100
AcDbDimStyleTableRecord
  2
EZ_M_5_H25_CM
 70
0
 40
1.0
 41
0.0125
 42
0.00625
 43
3.75
 44
0.018750000000000003
 45
0.0
 46
0.0
 47
0.0
 48
0.0
 49
2.5
140
0.0125
141
2.5
142
0.00625
143
0.03937007874
144
100.0
145
0.0
146
0.5
147
0.005000000000000001
148
0.0
 69
0
 70
0
 71
0
 72
0
 73
0
 74
0
 75
0
 76
0
 77
1
 78
12
 79
3
170
0
171
3
172
1
173
0
174
0
175
0
176
0
177
0
178
0
179
2
271
2
272
2
273
2
274
3
275
0
276
0
277
2
278
46
279
2
280
0
281
0
282
0
283
0
284
8
285
0
286
0
288
1
289
3
290
0
340
4C
371
-2
372
-2
  0
DIMSTYLE
105
82
330
4
100
AcDbSymbolTableRecord
100
AcDbDimStyleTableRecord
  2
EZ_M_1_H25_CM
 70
0
 40
1.0
 41
0.0025
 42
0.00125
 43
3.75
 44
0.00375
 45
0.0
 46
0.0
 47
0.0
 48
0.0
 49
2.5
140
0.0025
141
2.5
142
0.00125
143
0.03937007874
144
100.0
145
0.0
146
0.5
147
0.001
148
0.0
 69
0
 70
0
 71
0
 72
0
 73
0
 74
0
 75
0
 76
0
 77
1
 78
12
 79
3
170
0
171
3
172
1
173
0
174
0
175
0
176
0
177
0
178
0
179
2
271
2
272
2
273
2
274
3
275
0
276
0
277
2
278
46
279
2
280
0
281
0
282
0
283
0
284
8
285
0
286
0
288
1
289
3
290
0
340
4C
371
-2
372
-2
  0
DIMSTYLE
105
83
330
4
100
AcDbSymbolTableRecord
100
AcDbDimStyleTableRecord
  2
EZ_RADIUS
 70
0
 40
1.0
 41
0.25
 42
0.125
 43
3.75
 44
0.375
 45
0.0
 46
0.0
 47
0.0
 48
0.0
 49
2.5
140
0.25
141
0.0
142
0.0
143
0.03937007874
144
100.0
145
0.0
146
0.5
147
0.1
148
0.0
 69
0
 70
0
 71
0
 72
0
 73
0
 74
0
 75
0
 76
0
 77
1
 78
12
 79
3
170
0
171
3
172
0
173
0
174
0
175
0
176
0
177
0
178
0
179
2
271
2
272
2
273
2
274
3
275
0
276
0
277
2
278
46
279
1
280
0
281
0
282
0
283
0
284
8
285
0
286
0
288
1
289
3
290
0
340
4C
342
84
371
-2
372
-2
  0
DIMSTYLE
105
88
330
4
100
AcDbSymbolTableRecord
100
AcDbDimStyleTableRecord
  2
EZ_RADIUS_INSIDE
 70
0
 40
1.0
 41
0.25
 42
0.125
 43
3.75
 44
0.375
 45
0.0
 46
0.0
 47
0.0
 48
0.0
 49
2.5
140
0.25
141
0.0
142
0.0
143
0.03937007874
144
100.0
145
0.0
146
0.5
147
0.1
148
0.0
 69
0
 70
0
 71
0
 72
0
 73
0
 74
0
 75
0
 76
0
 77
0
 78
12
 79
3
170
0
171
3
172
0
173
0
174
1
175
0
176
0
177
0
178
0
179
2
271
2
272
2
273
2
274
3
275
0
276
0
277
2
278
46
279
0
280
0
281
0
282
0
283
0
284
8
285
0
286
0
288
1
289
0
290
0
340
4C
342
84
371
-2
372
-2
  0
DIMSTYLE
105
89
330
4
100
AcDbSymbolTableRecord
100
AcDbDimStyleTableRecord
  2
EZ_CURVED
 70
0
 40
1.0
 41
0.25
 42
0.125
 43
3.75
 44
0.375
 45
0.0
 46
0.0
 47
0.0
 48
0.0
 49
2.5
140
0.25
141
2.5
142
0.0
143
0.03937007874
144
100.0
145
0.0
146
0.5
147
0.1
148
0.0
 69
0
 70
0
 71
0
 72
0
 73
0
 74
0
 75
0
 76
0
 77
1
 78
12
 79
2
 90
2
170
0
171
3
172
1
173
0
174
0
175
0
176
0
177
0
178
0
179
2
271
2
272
2
273
2
274
3
275
0
276
0
277
2
278
46
279
2
280
0
281
0
282
0
283
0
284
8
285
0
286
0
288
1
289
3
290
0
340
4C
371
-2
372
-2
  0
ENDTAB
  0
TABLE
  2
BLOCK_RECORD
  5
9
330
0
100
AcDbSymbolTable
 70
5
  0
BLOCK_RECORD
  5
17
330
9
100
AcDbSymbolTableRecord
100
AcDbBlockTableRecord
  2
*Model_Space
340
1A
 70
0
280
1
281
0
  0
BLOCK_RECORD
  5
1B
330
9
100
AcDbSymbolTableRecord
100
AcDbBlockTableRecord
  2
*Paper_Space
340
1E
 70
0
280
1
281
0
  0
BLOCK_RECORD
  5
74
330
9
100
AcDbSymbolTableRecord
100
AcDbBlockTableRecord
  2
_ARCHTICK
340
0
 70
0
280
1
281
0
  0
BLOCK_RECORD
  5
78
330
9
100
AcDbSymbolTableRecord
100
AcDbBlockTableRecord
  2
_CLOSEDFILLED
340
0
 70
0
280
1
281
0
  0
BLOCK_RECORD
  5
84
330
9
100
AcDbSymbolTableRecord
100
AcDbBlockTableRecord
  2
_CLOSEDBLANK
340
0
 70
0
280
1
281
0
  0
ENDTAB
  0
ENDSEC
  0
SECTION
  2
BLOCKS
  0
BLOCK
  5
18
330
17
100
AcDbEntity
  8
0
100
AcDbBlockBegin
  2
*Model_Space
 70
0
 10
0.0
 20
0.0
 30
0.0
  3
*Model_Space
  1

  0
ENDBLK
  5
19
330
17
100
AcDbEntity
  8
0
100
AcDbBlockEnd
  0
BLOCK
  5
1C
330
1B
100
AcDbEntity
  8
0
100
AcDbBlockBegin
  2
*Paper_Space
 70
0
 10
0.0
 20
0.0
 30
0.0
  3
*Paper_Space
  1

  0
ENDBLK
  5
1D
330
1B
100
AcDbEntity
  8
0
100
AcDbBlockEnd
  0
BLOCK
  5
75
330
74
100
AcDbEntity
  8
0
100
AcDbBlockBegin
  2
_ARCHTICK
 70
0
 10
0.0
 20
0.0
 30
0.0
  3
_ARCHTICK
  1

  0
LWPOLYLINE
  5
77
330
74
100
AcDbEntity
  8
0
  6
BYBLOCK
 62
0
100
AcDbPolyline
 90
2
 70
0
 43
0.15
 10
-0.5
 20
-0.5
 10
0.5
 20
0.5
  0
ENDBLK
  5
76
330
74
100
AcDbEntity
  8
0
100
AcDbBlockEnd
  0
BLOCK
  5
79
330
78
100
AcDbEntity
  8
0
100
AcDbBlockBegin
  2
_CLOSEDFILLED
 70
0
 10
0.0
 20
0.0
 30
0.0
  3
_CLOSEDFILLED
  1

  0
SOLID
  5
7B
330
78
100
AcDbEntity
  8
0
  6
BYBLOCK
 62
0
100
AcDbTrace
 10
-1.0
 20
0.16439898372402537
 30
0.0
 11
0.0
 21
0.0
 31
0.0
 12
-1.0
 22
-0.16439898372402537
 32
0.0
 13
-1.0
 23
-0.16439898372402537
 33
0.0
  0
ENDBLK
  5
7A
330
78
100
AcDbEntity
  8
0
100
AcDbBlockEnd
  0
BLOCK
  5
85
330
84
100
AcDbEntity
  8
0
100
AcDbBlockBegin
  2
_CLOSEDBLANK
 70
0
 10
0.0
 20
0.0
 30
0.0
  3
_CLOSEDBLANK
  1

  0
LWPOLYLINE
  5
87
330
84
100
AcDbEntity
  8
0
  6
BYBLOCK
 62
0
100
AcDbPolyline
 90
3
 70
1
 10
-1.0
 20
0.16439898372402537
 10
0.0
 20
0.0
 10
-1.0
 20
-0.16439898372402537
  0
ENDBLK
  5
86
330
84
100
AcDbEntity
  8
0
100
AcDbBlockEnd
  0
ENDSEC
  0
SECTION
  2
ENTITIES
  0
LWPOLYLINE
  5
8B
330
17
100
AcDbEntity
  8
CUT
100
AcDbPolyline
 90
525
 70
1
 10
-42.579788856469
 20
-35.42828924583685
 10
-41.53356208254843
 20
-35.45462018674954
 10
-41.23611854868129
 20
-35.42827027409199
 10
-40.94276798527263
 20
-35.37248120093022
 10
-40.65641674587611
 20
-35.287805694244355
 10
-40.379901838652025
 20
-35.175082671665606
 10
-40.11596281887485
 20
-35.03542892994884
 10
-39.86721464694951
 20
-34.87022808037404
 10
-39.63612178084415
 20
-34.68111684069845
 10
-28.071067811865476
 20
-23.121320343559642
 10
-27.873356795336907
 20
-22.903179852490936
 10
-27.657827459675996
 20
-22.60499285966129
 10
-27.480420276054787
 20
-22.282665280290846
 10
-27.367755959876057
 20
-22.01066956017666
 10
-27.26528176530953
 20
-21.65730372047061
 10
-27.214949551628987
 20
-21.367232025597648
 10
-27.192388155425117
 20
-21.0
 10
-27.20683397540853
 20
-20.705948579011316
 10
-27.282294395841486
 20
-20.271059460290207
 10
-27.420749557891256
 20
-19.85194970290473
 10
-27.6192023254243
 20
-19.457691767420336
 10
-27.873356795336907
 20
-19.096820147509064
 10
-28.019646906570717
 20
-18.9313783657888
 10
-28.232869626563787
 20
-18.728373460480547
 10
-28.587395295763827
 20
-18.46543930425088
 10
-28.976664213410146
 20
-18.257370732889406
 10
-29.39224988300042
 20
-18.10867180261368
 10
-29.752196732059033
 20
-18.032470470105658
 10
-30.11876446985638
 20
-18.000903543911388
 10
-41.99079608639576
 20
-18.0
 10
-42.386162941034435
 20
-17.98487292642725
 10
-42.75182661724911
 20
-17.9429582890463
 10
-43.315763684038096
 20
-17.82357189615976
 10
-43.816567123043505
 20
-17.658128787091783
 10
-44.3406440135776
 20
-17.41808391855101
 10
-44.86386191681352
 20
-17.09833805719842
 10
-45.27965431787364
 20
-16.773850482585193
 10
-45.69222712328544
 20
-16.3712814744146
 10
-46.026821024640235
 20
-15.963577625973569
 10
-46.35931099464808
 20
-15.44836426244056
 10
-46.62623286963831
 20
-14.89632522145699
 10
-46.823571896159734
 20
-14.315763684038203
 10
-46.9483599115697
 20
-13.71541183609561
 10
-46.99871998796358
 20
-13.10429952823049
 10
-47.0
 20
12.990796086395322
 10
-46.9875810755363
 20
13.349449459304003
 10
-46.95992031124776
 20
13.630293912177255
 10
-46.845464698790224
 20
14.23270100285249
 10
-46.65812878709189
 20
14.816567123043244
 10
-46.400730282637234
 20
15.373110382838382
 10
-46.07714069852089
 20
15.893959853577844
 10
-45.69222712328544
 20
16.3712814744146
 10
-45.25177901538148
 20
16.797895883878383
 10
-44.762421124321556
 20
17.16738640415762
 10
-44.231513848283484
 20
17.474195553904053
 10
-43.66704252686843
 20
17.713708637927027
 10
-43.315763684038096
 20
17.82357189615976
 10
-42.957354603803296
 20
17.907295800360153
 10
-42.593757536022295
 20
17.964426643437537
 10
-42.141101669542614
 20
17.99781654610371
 10
-30.192388155425117
 20
18.0
 10
-29.898336734436434
 20
18.014445819983408
 10
-29.53508443495451
 20
18.072893609884414
 10
-29.251342934228443
 20
18.15141545822089
 10
-29.044337858329847
 20
18.228361402466142
 10
-28.8435541664613
 20
18.320327096413454
 10
-28.587395295763827
 20
18.46543930425088
 10
-28.346693383683238
 20
18.63496071712018
 10
-28.123766521213916
 20
18.8272587511456
 10
-27.969534779360238
 20
18.985323135458945
 10
-27.782765560983183
 20
19.2129020865227
 10
-27.6192023254243
 20
19.457691767420336
 10
-27.51271525183857
 20
19.65116601103618
 10
-27.420749557891256
 20
19.85194970290473
 10
-27.32156714822849
 20
20.129145968236614
 10
-27.250032314215424
 20
20.414729033951616
 10
-27.214949551628987
 20
20.632767974402352
 10
-27.193291699336505
 20
20.926376314431263
 10
-27.20051678538905
 20
21.220693690799003
 10
-27.26528176530953
 20
21.65730372047061
 10
-27.32156714822849
 20
21.870854031763386
 10
-27.420749557891256
 20
22.14805029709527
 10
-27.54662436238005
 20
22.414190210477994
 10
-27.657827459675996
 20
22.60499285966129
 10
-27.782765560983183
 20
22.7870979134773
 10
-27.96953477936024
 20
23.014676864541055
 10
-39.52791903431055
 20
34.57817156600472
 10
-39.74626019614018
 20
34.7760472542419
 10
-40.044740003301854
 20
34.99172434688539
 10
-40.301159018481655
 20
35.13690333847396
 10
-40.639669751921545
 20
35.281876739208045
 10
-40.99339209757928
 20
35.38428428657054
 10
-41.28374645109953
 20
35.43450380803672
 10
-41.50398094478489
 20
35.45333249013516
 10
-42.579788856469
 20
35.42828924583685
 10
-42.95969893942674
 20
35.44695303140823
 10
-43.435279656198894
 20
35.49969393969354
 10
-43.94210668566845
 20
35.59267945461233
 10
-44.31107577897277
 20
35.68510140119869
 10
-44.76722910484578
 20
35.8296101028998
 10
-45.1221099459652
 20
35.96650274927367
 10
-45.590025849327276
 20
36.18231435963337
 10
-46.00922206780152
 20
36.4130374663853
 10
-46.44188517084222
 20
36.692899187691374
 10
-46.74739981653004
 20
36.91948429155986
 10
-47.14080625530109
 20
37.25227749719713
 10
-47.48328074152365
 20
37.586447884663
 10
-47.73872044808418
 20
37.868282169903786
 10
-48.03771334402077
 20
38.24186197362933
 10
-48.35003847506758
 20
38.69709527878039
 10
-48.6870510274879
 20
39.29567036360008
 10
-48.950521255954186
 20
39.89004967507955
 10
-49.16771234118704
 20
40.54173796341307
 10
-49.31998096957147
 20
41.21157664359355
 10
-49.39427931486442
 20
41.758627011921995
 10
-49.42618097671028
 20
42.408000256808414
 10
-49.39427931486442
 20
43.0941867304637
 10
-49.31998096957133
 20
43.64123709879287
 10
-49.167712341187
 20
44.31107577897277
 10
-48.950521255954186
 20
44.96276406730614
 10
-48.6870510274879
 20
45.55714337878561
 10
-48.42085049406786
 20
46.0407978273428
 10
-48.03771334402113
 20
46.61095176875589
 10
-47.60053624518808
 20
47.14080625530161
 10
-47.140806255301094
 20
47.600536245188565
 10
-46.718378239140456
 20
47.95597811211591
 10
-46.18682025117872
 20
48.330343485296076
 10
-45.59002584932702
 20
48.67049938275246
 10
-45.08809895737983
 20
48.9003988058538
 10
-44.4407200065184
 20
49.13011621189225
 10
-43.81004799192858
 20
49.28809132770457
 10
-43.26498575761351
 20
49.37579258382781
 10
-42.616590997781095
 20
49.42362105468897
 10
-42.06455979220624
 20
49.41684627248618
 10
-41.38111930503326
 20
49.34771818016874
 10
-40.74345549097
 20
49.22087896132108
 10
-40.21322794830777
 20
49.067115823332124
 10
-39.60663672137437
 20
48.83312776677728
 10
-38.99224622429252
 20
48.525891848058244
 10
-38.5222361997801
 20
48.23628016587029
 10
-37.97156868266014
 20
47.82562839338622
 10
-37.61310975821279
 20
47.50866495534238
 10
-37.34414878704356
 20
47.239703984173175
 10
-37.02718534899945
 20
46.88124505972553
 10
-36.793170783591286
 20
46.581383106151236
 10
-36.522470257089616
 20
46.18682025117872
 10
-36.32692189432745
 20
45.86056751809317
 10
-36.10655586725511
 20
45.43583532519415
 10
-35.90229248643164
 20
44.96276406730647
 10
-35.7741502813837
 20
44.60463059594341
 10
-35.64087966601352
 20
44.14506823385179
 10
-35.55754051002617
 20
43.773942119028085
 10
-35.48152749074773
 20
43.30152213376898
 10
-35.42828924583685
 20
42.579788856469
 10
-35.45462018674955
 20
41.533562082548755
 10
-35.43763288589818
 20
41.310210360201026
 10
-35.38916310643321
 20
41.01556200331595
 10
-35.28780569424442
 20
40.65641674587629
 10
-35.142644407352776
 20
40.31263361404029
 10
-34.95592535281725
 20
39.989532026887936
 10
-34.730537668612676
 20
39.692111394187535
 10
-13.876233478786084
 20
18.8272587511456
 10
-13.653306616316762
 20
18.63496071712018
 10
-13.412604704236173
 20
18.46543930425088
 10
-13.156445833538703
 20
18.320327096413454
 10
-12.887296954179847
 20
18.201021603495782
 10
-12.607750116999577
 20
18.10867180261368
 10
-12.320497510855786
 20
18.044167072833176
 10
-12.028305535373885
 20
18.008128629963927
 10
-11.807611844574883
 20
18.0
 10
11.88123553014362
 20
18.000903543911388
 10
12.17484387017253
 20
18.02256139620387
 10
12.536552384284674
 20
18.08990624041637
 10
12.818281404751543
 20
18.175367804450936
 10
13.156445833538703
 20
18.320327096413454
 10
13.349920077154547
 20
18.426814169999183
 10
13.594709758052183
 20
18.590377405558066
 10
13.928932188134524
 20
18.878679656440358
 10
34.57817156600472
 20
39.52791903431055
 10
34.7760472542419
 20
39.74626019614018
 10
34.99172434688539
 20
40.044740003301854
 10
35.16920743487643
 20
40.36739548063268
 10
35.30582230552046
 20
40.70936504169526
 10
35.38428428657054
 20
40.99339209757928
 10
35.43450380803672
 20
41.28374645109953
 10
35.45333249013516
 20
41.50398094478489
 10
35.42828924583685
 20
42.57978885646897
 10
35.48152749074769
 20
43.301522133768714
 10
35.55754051002622
 20
43.77394211902835
 10
35.64087966601351
 20
44.14506823385177
 10
35.7741502813837
 20
44.60463059594341
 10
35.902292486431506
 20
44.96276406730614
 10
36.10655586725523
 20
45.435835325194404
 10
36.32692189432745
 20
45.86056751809317
 10
36.522470257089786
 20
46.18682025117897
 10
36.79317078359143
 20
46.58138310615143
 10
37.02718534899945
 20
46.88124505972552
 10
37.34414878704331
 20
47.239703984172905
 10
37.61310975821252
 20
47.508664955342134
 10
37.97156868266016
 20
47.82562839338624
 10
38.52223619977992
 20
48.236280165870156
 10
38.99224622429252
 20
48.525891848058244
 10
39.6066367213743
 20
48.833127766777245
 10
40.24818314644228
 20
49.078663461001995
 10
40.91070705671744
 20
49.2601342877734
 10
41.58782798477218
 20
49.37579258382781
 10
42.236222744604596
 20
49.42362105468897
 10
42.92298545769634
 20
49.40856886008652
 10
43.60496584754257
 20
49.32627462869306
 10
44.14506823385177
 20
49.21193407637218
 10
44.801890381912905
 20
49.01080163624321
 10
45.435835325194404
 20
48.74625787513046
 10
46.00922206780124
 20
48.43977627600056
 10
46.58138310615146
 20
48.059642958794235
 10
47.11352945201736
 20
47.62525849862465
 10
47.600536245188565
 20
47.140806255301094
 10
47.95597811211591
 20
46.718378239140456
 10
48.330343485296076
 20
46.18682025117872
 10
48.67049938275246
 20
45.59002584932702
 10
48.9003988058538
 20
45.08809895737983
 10
49.13011621189225
 20
44.4407200065184
 10
49.28809132770457
 20
43.81004799192858
 10
49.375792583827796
 20
43.264985757613616
 10
49.42362105468897
 20
42.616590997781095
 10
49.41684627248623
 20
42.06455979220713
 10
49.347718180168705
 20
41.38111930503296
 10
49.22087896132108
 20
40.74345549097
 10
49.067115823332124
 20
40.21322794830777
 10
48.833127766777295
 20
39.60663672137441
 10
48.59097968252695
 20
39.110503014702765
 10
48.25673249995547
 20
38.552845280831946
 10
47.93332945082583
 20
38.10541392585565
 10
47.60053624518808
 20
37.71200748708408
 10
47.26636585772245
 20
37.36953300086181
 10
46.98453157248176
 20
37.114093294301384
 10
46.61095176875589
 20
36.815100398364564
 10
46.18682025117872
 20
36.522470257089616
 10
45.86056751809317
 20
36.32692189432745
 10
45.435835325194404
 20
36.10655586725523
 10
45.0880989573802
 20
35.952414936532044
 10
44.639585794077924
 20
35.78569791905357
 10
44.27559607018092
 20
35.675282843442254
 10
43.810047991928485
 20
35.5647224146811
 10
43.435279656199
 20
35.49969393969356
 10
42.95969893942674
 20
35.44695303140823
 10
42.579788856469
 20
35.42828924583685
 10
41.533562082548755
 20
35.45462018674955
 10
41.310210360201026
 20
35.43763288589818
 10
41.01556200331595
 20
35.38916310643321
 10
40.65641674587629
 20
35.28780569424442
 10
40.37990183865216
 20
35.17508267166567
 10
40.05225260051792
 20
34.99646403406853
 10
39.74931382996417
 20
34.778549504396025
 10
39.52791903431055
 20
34.57817156600472
 10
27.96953477936024
 20
23.014676864541055
 10
27.782765560983183
 20
22.7870979134773
 10
27.6192023254243
 20
22.542308232579664
 10
27.480420276054787
 20
22.282665280290846
 10
27.3934097589209
 20
22.079685109604963
 10
27.32156714822849
 20
21.870854031763386
 10
27.250032314215424
 20
21.585270966048384
 10
27.20683397540853
 20
21.29405142098868
 10
27.192388155425117
 20
21.0
 10
27.224858625530775
 20
20.559808576633916
 10
27.32156714822849
 20
20.129145968236614
 10
27.480420276054787
 20
19.717334719709154
 10
27.657827459675996
 20
19.39500714033871
 10
27.920761615905665
 20
19.04048147113867
 10
28.232869626563787
 20
18.728373460480547
 10
28.587395295763827
 20
18.46543930425088
 10
28.97666421341015
 20
18.257370732889406
 10
29.251342934228443
 20
18.15141545822089
 10
29.463447615715324
 20
18.08990624041637
 10
29.679502489144216
 20
18.044167072833176
 10
29.971694464626115
 20
18.008128629963927
 10
33.104299528230335
 20
17.998719987963586
 10
33.47174557861145
 20
17.977502990327206
 10
33.75182661724911
 20
17.9429582890463
 10
34.23270100285267
 20
17.845464698790177
 10
34.78222064570031
 20
17.671377685404522
 10
35.26439631882526
 20
17.457643909168425
 10
35.690418140211655
 20
17.21422948360383
 10
36.06150818678685
 20
16.95287838566946
 10
36.37128147441457
 20
16.692227123285463
 10
36.69222712328546
 20
16.371281474414577
 10
36.952878385669706
 20
16.061508186786547
 10
37.16738640415735
 20
15.762421124321973
 10
37.35931099464816
 20
15.448364262440403
 10
37.82626262382084
 20
14.485410674406088
 10
37.98899024878025
 20
14.236396049038403
 10
38.17557901784234
 20
14.004721288151872
 10
38.38419437854567
 20
13.792664232502798
 10
38.67279471357783
 20
13.558336569416555
 10
38.92317337590924
 20
13.397715621153047
 10
39.25648252108228
 20
13.233080810702305
 10
39.536203400874406
 20
13.13186424595
 10
39.82457312817272
 20
13.058847371531606
 10
40.044823053095996
 20
13.023033267844689
 10
40.34147044641215
 20
13.000922464813895
 10
50.009203220566405
 20
12.999887053821828
 10
50.410364401292156
 20
12.978709936244787
 10
50.85839609400467
 20
12.906621026464995
 10
51.36481395054339
 20
12.7597625695013
 10
51.86924727675205
 20
12.536162654202426
 10
52.318151662160204
 20
12.259555885369165
 10
52.74467547876895
 20
11.909516835295051
 10
53.1035442272043
 20
11.523201325381647
 10
53.421257792874435
 20
11.0720827235699
 10
53.64917338727493
 20
10.637701220682617
 10
53.83288833350282
 20
10.143459103562014
 10
53.90662102646502
 20
9.85839609400458
 10
53.959183401604996
 20
9.568681361639664
 10
53.999887053821816
 20
9.00920322056715
 10
53.99585937219799
 20
-9.17787517038179
 10
53.96744077664897
 20
-9.507883236978621
 10
53.90662102646502
 20
-9.85839609400458
 10
53.83288833350265
 20
-10.143459103562588
 10
53.72513598825703
 20
-10.456672086508553
 10
53.58097125270844
 20
-10.781902518629076
 10
53.42125779287444
 20
-11.07208272356989
 10
53.223613493159654
 20
-11.367878321481042
 10
53.01664163607891
 20
-11.626481474919636
 10
52.77133735231842
 20
-11.884132621476624
 10
52.47529817359526
 20
-12.141883296753212
 10
52.20685089130218
 20
-12.335916791854926
 10
51.86924727675205
 20
-12.536162654202426
 10
51.51364178909188
 20
-12.702353337127024
 10
51.178687167059465
 20
-12.82220201727096
 10
50.79837015468726
 20
-12.919328615302055
 10
50.471346860823
 20
-12.971947108838835
 10
49.99079608639584
 20
-13.0
 10
40.34201800147065
 20
-13.000908933031933
 10
39.90146300979962
 20
-13.04442986516675
 10
39.61339829599538
 20
-13.109316034759752
 10
39.40230154958411
 20
-13.17640345205451
 10
39.0633069445606
 20
-13.3222028031426
 10
38.806609561036396
 20
-13.468140966881194
 10
38.507939121096065
 20
-13.684868356286874
 10
38.23813655358051
 20
-13.936624920401433
 10
38.04583893452805
 20
-14.160707762337893
 10
37.837952683341776
 20
-14.465598069793659
 10
37.731766142177875
 20
-14.659986794724798
 10
37.52761210115647
 20
-15.121039502488623
 10
37.359310994648034
 20
-15.44836426244065
 10
37.16738640415739
 20
-15.762421124321907
 10
36.9302297243798
 20
-16.09052976417592
 10
36.608379704427946
 20
-16.460877897055635
 10
36.27965431787364
 20
-16.773850482585193
 10
35.96357762597324
 20
-17.026821024640473
 10
35.58618546776339
 20
-17.27898640287454
 10
35.154318267140965
 20
-17.51187241769074
 10
34.701703803935494
 20
-17.701306634684368
 10
34.19699102041598
 20
-17.85440958373923
 10
33.7154118360953
 20
-17.948359911569742
 10
33.104299528230335
 20
-17.998719987963586
 10
30.045185132442864
 20
-18.003613631384482
 10
29.82515612982747
 20
-18.02256139620387
 10
29.535084434954506
 20
-18.072893609884414
 10
29.251342934228443
 20
-18.15141545822089
 10
29.044337858329847
 20
-18.228361402466142
 10
28.713693578735764
 20
-18.389739026673865
 10
28.405290241947817
 20
-18.590377405558066
 10
28.123766521213916
 20
-18.8272587511456
 10
27.827348872545297
 20
-19.15430522825812
 10
27.582127182098983
 20
-19.521305423310647
 10
27.420749557891256
 20
-19.85194970290473
 10
27.282294395841486
 20
-20.271059460290207
 10
27.214949551628987
 20
-20.632767974402352
 10
27.193291699336505
 20
-20.926376314431263
 10
27.20051678538905
 20
-21.220693690799003
 10
27.250032314215424
 20
-21.585270966048387
 10
27.32156714822849
 20
-21.870854031763386
 10
27.420749557891256
 20
-22.14805029709527
 10
27.582127182098983
 20
-22.478694576689353
 10
27.782765560983183
 20
-22.7870979134773
 10
27.96953477936024
 20
-23.014676864541055
 10
39.689868274440954
 20
-34.728604923673814
 10
39.98296038154157
 20
-34.95154845986569
 10
40.301159018481655
 20
-35.13690333847395
 10
40.639669751921545
 20
-35.281876739208045
 10
40.99339209757928
 20
-35.38428428657054
 10
41.28374645109953
 20
-35.43450380803672
 10
41.50398094478489
 20
-35.45333249013516
 10
42.57978885646897
 20
-35.42828924583685
 10
42.959698939426445
 20
-35.4469530314082
 10
43.435279656198844
 20
-35.49969393969354
 10
43.94210668566845
 20
-35.59267945461233
 10
44.31107577897277
 20
-35.68510140119869
 10
44.7672291048457
 20
-35.82961010289977
 10
45.12210994596487
 20
-35.96650274927353
 10
45.55714337878597
 20
-36.16576271489797
 10
46.00922206780124
 20
-36.413037466385134
 10
46.33057754260559
 20
-36.6165335765154
 10
46.74739981653028
 20
-36.91948429156005
 10
47.14080625530161
 20
-37.25227749719761
 10
47.483280741523885
 20
-37.58644788466324
 10
47.738720448083974
 20
-37.86828216990354
 10
48.059642958794406
 20
-38.271430636234456
 10
48.439776276000394
 20
-38.843591674584175
 10
48.74625787513058
 20
-39.416978417191544
 10
48.963770154266896
 20
-39.924396152422695
 10
49.17753089894344
 20
-40.577217672204775
 10
49.319980969571354
 20
-41.21157664359297
 10
49.405860710977464
 20
-41.893114802958955
 10
49.42618097671028
 20
-42.44481348557728
 10
49.39067098745425
 20
-43.130822693473455
 10
49.29527323235947
 20
-43.77394211902835
 10
49.13011621189225
 20
-44.4407200065184
 10
48.950521255954186
 20
-44.96276406730614
 10
48.68705102748772
 20
-45.55714337878597
 10
48.420850494068034
 20
-46.04079782734251
 10
48.03771334402113
 20
-46.61095176875589
 10
47.60053624518808
 20
-47.14080625530161
 10
47.14080625530121
 20
-47.60053624518845
 10
46.61095176875589
 20
-48.03771334402113
 10
46.155718463605304
 20
-48.35003847506758
 10
45.55714337878597
 20
-48.68705102748772
 10
44.96276406730614
 20
-48.950521255954186
 10
44.4407200065184
 20
-49.13011621189225
 10
43.77394211902826
 20
-49.295273232359484
 10
43.130822693473455
 20
-49.39067098745425
 10
42.579788856469
 20
-49.42452449654884
 10
41.929828284689364
 20
-49.40856886008652
 10
41.24784789484345
 20
-49.32627462869311
 10
40.707745508533925
 20
-49.21193407637218
 10
40.08558463753991
 20
-49.02320363948589
 10
39.57298170849532
 20
-48.81820952557839
 10
38.96021551284026
 20
-48.50774667414806
 10
38.380830634779294
 20
-48.13871719601689
 10
37.868282169903544
 20
-47.738720448083974
 10
37.586447884663244
 20
-47.483280741523885
 10
37.25227749719722
 20
-47.14080625530119
 10
37.00383128390064
 20
-46.85278804906581
 10
36.71409654636885
 20
-46.471983107606476
 10
36.502775267318114
 20
-46.155718463605304
 10
36.26183405985874
 20
-45.74231072768293
 10
36.09081618378951
 20
-45.402556560542074
 10
35.902292486431506
 20
-44.96276406730614
 10
35.7741502813837
 20
-44.60463059594341
 10
35.64087966601352
 20
-44.14506823385179
 10
35.55754051002621
 20
-43.77394211902827
 10
35.481527490747716
 20
-43.301522133768906
 10
35.42828924583685
 20
-42.579788856469
 10
35.45462018674955
 20
-41.533562082548755
 10
35.43763288589818
 20
-41.310210360201026
 10
35.38916310643321
 20
-41.01556200331595
 10
35.28780569424442
 20
-40.65641674587629
 10
35.142644407352776
 20
-40.31263361404029
 10
34.95592535281725
 20
-39.989532026887936
 10
34.730537668612676
 20
-39.692111394187535
 10
13.876233478786084
 20
-18.8272587511456
 10
13.535036418828419
 20
-18.54724556054525
 10
13.286306421264236
 20
-18.389739026673865
 10
13.090277124865729
 20
-18.28803212062967
 10
12.678465876338269
 20
-18.129178992803375
 10
12.247803267940968
 20
-18.032470470105658
 10
11.807611844574883
 20
-18.0
 10
-11.881235530143618
 20
-18.000903543911388
 10
-12.247803267940968
 20
-18.032470470105658
 10
-12.607750116999577
 20
-18.10867180261368
 10
-12.955662141670151
 20
-18.228361402466142
 10
-13.286306421264234
 20
-18.389739026673865
 10
-13.653306616316762
 20
-18.63496071712018
 10
-13.928932188134524
 20
-18.878679656440358
 10
-34.57817156600472
 20
-39.52791903431055
 10
-34.7760472542419
 20
-39.74626019614018
 10
-34.99172434688539
 20
-40.044740003301854
 10
-35.16920743487643
 20
-40.36739548063268
 10
-35.30582230552046
 20
-40.70936504169526
 10
-35.3995105248254
 20
-41.06549608659009
 10
-35.43450380803672
 20
-41.28374645109953
 10
-35.45599637624339
 20
-41.5776269037607
 10
-35.42828924583685
 20
-42.579788856469
 10
-35.47702115855788
 20
-43.264985757613495
 10
-35.60074527868958
 20
-43.97802543139097
 10
-35.72269753049344
 20
-44.4407200065184
 10
-35.8296101028998
 20
-44.76722910484578
 10
-36.10655586725523
 20
-45.435835325194404
 10
-36.32692189432745
 20
-45.86056751809317
 10
-36.502775267318114
 20
-46.155718463605304
 10
-36.91948429155986
 20
-46.74739981653004
 10
-37.369533000862006
 20
-47.26636585772266
 10
-37.613109758212524
 20
-47.508664955342134
 10
-37.97156868265991
 20
-47.82562839338602
 10
-38.552845280831946
 20
-48.25673249995547
 10
-38.96021551284026
 20
-48.50774667414806
 10
-39.26278789305868
 20
-48.67049938275246
 10
-39.92439615242247
 20
-48.96377015426681
 10
-40.37686567237
 20
-49.11942989566044
 10
-40.707745508533904
 20
-49.211934076372174
 10
-41.41753408618669
 20
-49.353119802692134
 10
-41.758627011921995
 20
-49.39427931486442
 10
-42.236222744604596
 20
-49.42362105468897
 10
-42.95969893942674
 20
-49.405860710977464
 10
-43.64123709879287
 20
-49.31998096957133
 10
-44.31107577897277
 20
-49.167712341187
 10
-44.96276406730614
 20
-48.950521255954186
 10
-45.590025849327276
 20
-48.670499382752325
 10
-46.18682025117872
 20
-48.330343485296076
 10
-46.74739981653004
 20
-47.93332945082583
 10
-47.26636585772245
 20
-47.483280741523885
 10
-47.73872044808418
 20
-46.984531572481906
 10
-48.159914554694275
 20
-46.44188517084229
 10
-48.525891848058244
 20
-45.86056751809317
 10
-48.83312776677735
 20
-45.24617702101114
 10
-49.078663461001995
 20
-44.60463059594341
 10
-49.2601342877734
 20
-43.94210668566825
 10
-49.37579258382781
 20
-43.264985757613495
 10
-49.42452449654884
 20
-42.579788856469
 10
-49.405860710977464
 20
-41.893114802958955
 10
-49.31998096957133
 20
-41.21157664359282
 10
-49.167712341187
 20
-40.54173796341292
 10
-48.950521255954186
 20
-39.89004967507955
 10
-48.670499382752325
 20
-39.262787893058416
 10
-48.330343485295906
 20
-38.66599349120672
 10
-47.93332945082583
 20
-38.10541392585565
 10
-47.48328074152369
 20
-37.58644788466304
 10
-46.984531572482155
 20
-37.11409329430172
 10
-46.44188517084222
 20
-36.692899187691374
 10
-45.86056751809317
 20
-36.32692189432745
 10
-45.24617702101139
 20
-36.019685975608446
 10
-44.60463059594341
 20
-35.7741502813837
 10
-43.94210668566825
 20
-35.592679454612295
 10
-43.26498575761351
 20
-35.47702115855788
 10
-42.579788856469
 20
-35.42828924583685
  0
LWPOLYLINE
  5
8C
330
17
100
AcDbEntity
  8
CUT
100
AcDbPolyline
 90
65
 70
1
 10
-38.138057907474476
 20
-42.74273449467142
 10
-38.127701950799164
 20
-42.32087958854432
 10
-38.158744872418396
 20
-41.90004096783622
 10
-38.230887712027176
 20
-41.48427153851831
 10
-38.343435694642785
 20
-41.077575387477616
 10
-38.49530492166767
 20
-40.68386922097139
 10
-38.68503280942539
 20
-40.306944644604776
 10
-38.91079217464104
 20
-39.950431648096114
 10
-39.170408831214964
 20
-39.6177636464916
 10
-39.46138252882346
 20
-39.31214441450154
 10
-39.78091103169615
 20
-39.03651723239844
 10
-40.125917105678326
 20
-38.79353654061911
 10
-40.493078153678034
 20
-38.58554237605213
 10
-40.878858214092396
 20
-38.414537836203465
 10
-41.27954201405078
 20
-38.282169788272455
 10
-41.691270749523554
 20
-38.1897130089204
 10
-42.110079247714275
 20
-38.138057907474476
 10
-42.53193415384137
 20
-38.127701950799164
 10
-42.95277277454947
 20
-38.158744872418396
 10
-43.368542203867385
 20
-38.230887712027176
 10
-43.775238354908076
 20
-38.343435694642785
 10
-44.1689445214143
 20
-38.49530492166767
 10
-44.545869097780916
 20
-38.68503280942539
 10
-44.90238209428958
 20
-38.91079217464104
 10
-45.23505009589409
 20
-39.170408831214964
 10
-45.54066932788415
 20
-39.46138252882346
 10
-45.816296509987254
 20
-39.78091103169615
 10
-46.059277201766584
 20
-40.125917105678326
 10
-46.26727136633356
 20
-40.493078153678034
 10
-46.43827590618223
 20
-40.878858214092396
 10
-46.57064395411324
 20
-41.27954201405078
 10
-46.66310073346529
 20
-41.691270749523554
 10
-46.714755834911216
 20
-42.110079247714275
 10
-46.72511179158653
 20
-42.53193415384137
 10
-46.694068869967296
 20
-42.95277277454947
 10
-46.621926030358516
 20
-43.368542203867385
 10
-46.509378047742906
 20
-43.775238354908076
 10
-46.357508820718024
 20
-44.1689445214143
 10
-46.167780932960305
 20
-44.545869097780916
 10
-45.94202156774465
 20
-44.90238209428958
 10
-45.68240491117073
 20
-45.23505009589409
 10
-45.391431213562235
 20
-45.54066932788415
 10
-45.07190271068954
 20
-45.816296509987254
 10
-44.726896636707366
 20
-46.059277201766584
 10
-44.35973558870766
 20
-46.26727136633356
 10
-43.973955528293295
 20
-46.43827590618222
 10
-43.57327172833491
 20
-46.57064395411324
 10
-43.16154299286214
 20
-46.66310073346529
 10
-42.74273449467142
 20
-46.714755834911216
 10
-42.32087958854432
 20
-46.72511179158653
 10
-41.90004096783622
 20
-46.694068869967296
 10
-41.48427153851831
 20
-46.621926030358516
 10
-41.07757538747761
 20
-46.509378047742906
 10
-40.68386922097139
 20
-46.357508820718024
 10
-40.306944644604776
 20
-46.167780932960305
 10
-39.950431648096114
 20
-45.94202156774465
 10
-39.6177636464916
 20
-45.68240491117073
 10
-39.31214441450154
 20
-45.391431213562235
 10
-39.03651723239844
 20
-45.07190271068954
 10
-38.79353654061911
 20
-44.726896636707366
 10
-38.58554237605213
 20
-44.35973558870765
 10
-38.414537836203465
 20
-43.973955528293295
 10
-38.282169788272455
 20
-43.57327172833491
 10
-38.1897130089204
 20
-43.16154299286214
 10
-38.138057907474476
 20
-42.74273449467142
  0
LWPOLYLINE
  5
8D
330
17
100
AcDbEntity
  8
CUT
100
AcDbPolyline
 90
33
 70
1
 10
-20.466066842334378
 20
-22.17943487477975
 10
-20.473764317662347
 20
-21.865874492701536
 10
-20.542486484071425
 20
-21.559840788382054
 10
-20.669592387246343
 20
-21.273094465452626
 10
-20.850197418609905
 20
-21.016655024294238
 10
-21.07736102809128
 20
-20.800377288817714
 10
-21.34235344557291
 20
-20.632572691107455
 10
-21.634991161060444
 20
-20.519689867747577
 10
-21.944028271260816
 20
-20.466066842334378
 10
-22.257588653339027
 20
-20.473764317662347
 10
-22.56362235765851
 20
-20.542486484071425
 10
-22.850368680587938
 20
-20.669592387246343
 10
-23.106808121746326
 20
-20.850197418609905
 10
-23.323085857222853
 20
-21.07736102809128
 10
-23.49089045493311
 20
-21.34235344557291
 10
-23.603773278292987
 20
-21.634991161060444
 10
-23.657396303706186
 20
-21.944028271260812
 10
-23.649698828378217
 20
-22.257588653339027
 10
-23.58097666196914
 20
-22.56362235765851
 10
-23.45387075879422
 20
-22.850368680587938
 10
-23.27326572743066
 20
-23.106808121746326
 10
-23.046102117949285
 20
-23.323085857222853
 10
-22.781109700467653
 20
-23.490890454933105
 10
-22.48847198498012
 20
-23.603773278292987
 10
-22.179434874779748
 20
-23.657396303706186
 10
-21.865874492701536
 20
-23.649698828378217
 10
-21.559840788382054
 20
-23.58097666196914
 10
-21.273094465452626
 20
-23.45387075879422
 10
-21.016655024294238
 20
-23.27326572743066
 10
-20.80037728881771
 20
-23.046102117949285
 10
-20.632572691107455
 20
-22.781109700467653
 10
-20.519689867747577
 20
-22.48847198498012
 10
-20.466066842334378
 20
-22.17943487477975
  0
LWPOLYLINE
  5
8E
330
17
100
AcDbEntity
  8
CUT
100
AcDbPolyline
 90
35
 70
1
 10
-7.041148349120266
 20
-14.702167634657048
 10
-8.91963298281833
 20
-14.700240945043037
 10
-9.075280992125496
 20
-14.719438295969177
 10
-9.224193051203992
 20
-14.768632195437176
 10
-9.360646553134277
 20
-14.845932149478733
 10
-9.479397666361173
 20
-14.948367564210347
 10
-9.575882852199765
 20
-15.072001904090323
 10
-9.64639423906779
 20
-15.21208397077201
 10
-9.688222113911152
 20
-15.363230488991759
 10
-9.699759054956964
 20
-15.51963298281833
 10
-9.680561704030822
 20
-15.675280992125495
 10
-9.631367804562824
 20
-15.824193051203991
 10
-9.530677142101284
 20
-15.992185272464502
 10
-9.392185272464502
 20
-16.130677142101284
 10
-9.224193051203992
 20
-16.231367804562826
 10
-9.01738437956429
 20
-16.291341207971826
 10
-7.08036701718167
 20
-16.299759054956965
 10
-6.924719007874504
 20
-16.280561704030823
 10
-6.775806948796008
 20
-16.231367804562826
 10
-6.655543813584318
 20
-16.165175689842037
 10
-6.548367564210347
 20
-16.079397666361174
 10
-6.457433974815484
 20
-15.976559443593947
 10
-6.394462988521316
 20
-15.877117389460798
 10
-6.340377455525571
 20
-15.750945392319114
 10
-6.311777886088847
 20
-15.636769511008241
 10
-6.3
 20
-15.5
 10
-6.311777886088847
 20
-15.363230488991759
 10
-6.346764747853584
 20
-15.230488117286225
 10
-6.40393040711303
 20
-15.105681446216172
 10
-6.48159163730981
 20
-14.992485372669083
 10
-6.562752836122385
 20
-14.907239099716033
 10
-6.6720019040903225
 20
-14.824117147800234
 10
-6.793853254107928
 20
-14.76089637399097
 10
-6.924719007874504
 20
-14.719438295969177
 10
-7.041148349120266
 20
-14.702167634657048
  0
LWPOLYLINE
  5
8F
330
17
100
AcDbEntity
  8
CUT
100
AcDbPolyline
 90
35
 70
1
 10
-44.793740144673855
 20
5.327422282428429
 10
-44.79022339497833
 20
-5.359133877758981
 10
-44.73438663477095
 20
-5.607786262518559
 10
-44.631113088441325
 20
-5.840767649898719
 10
-44.48437150045843
 20
-6.04912469583991
 10
-44.299801067754814
 20
-6.2248503559145885
 10
-44.084494728550986
 20
-6.36119159155417
 10
-43.846726584717366
 20
-6.452908885534072
 10
-43.59563393267957
 20
-6.496477593682298
 10
-43.34086612224102
 20
-6.490223394978323
 10
-43.1226299195692
 20
-6.444022436451872
 10
-42.944178378540634
 20
-6.375186081060477
 10
-42.7514493511568
 20
-6.262860257097059
 10
-42.58076118445749
 20
-6.119238815542512
 10
-42.43713974290294
 20
-5.948550648843199
 10
-42.324813918939526
 20
-5.755821621459368
 10
-42.24709111446593
 20
-5.546726584717368
 10
-42.206259855326145
 20
-5.3274222824284285
 10
-42.20977660502167
 20
5.359133877758981
 10
-42.26561336522905
 20
5.607786262518559
 10
-42.353502356347136
 20
5.812815757873797
 10
-42.49508641062844
 20
6.024711269412739
 10
-42.65087530416009
 20
6.184371500458431
 10
-42.831666432548815
 20
6.315047193000354
 10
-43.03213645250452
 20
6.412890638485161
 10
-43.24638258137903
 20
6.4750208645242
 10
-43.5
 20
6.5
 10
-43.75361741862097
 20
6.4750208645242
 10
-43.96786354749548
 20
6.412890638485161
 10
-44.195496905853226
 20
6.298309634824619
 10
-44.373026641301124
 20
6.163236462961447
 10
-44.54416979092484
 20
5.974409095840164
 10
-44.66119159155417
 20
5.784494728550989
 10
-44.74402243645187
 20
5.577370080430801
 10
-44.793740144673855
 20
5.327422282428429
  0
LWPOLYLINE
  5
90
330
17
100
AcDbEntity
  8
CUT
100
AcDbPolyline
 90
59
 70
1
 10
-36.220693690799
 20
-11.49187137003607
 10
-25.0
 20
-11.5
 10
-24.705948579011316
 20
-11.48555418001659
 10
-24.34269627952939
 20
-11.427106390115586
 10
-24.058954778803326
 20
-11.348584541779111
 10
-23.717334719709154
 20
-11.21196787937033
 10
-23.39500714033871
 20
-11.034560695749121
 10
-23.096820147509064
 20
-10.81903136008821
 10
-22.8272587511456
 20
-10.568621634211201
 10
-22.590377405558066
 20
-10.2870979134773
 10
-22.389739026673865
 20
-9.978694576689353
 10
-22.228361402466142
 20
-9.648050297095269
 10
-22.10867180261368
 20
-9.300138272424695
 10
-22.032470470105658
 20
-8.940191423366086
 10
-22.000903543911388
 20
-8.573623685568737
 10
-22.003613631384482
 20
8.647203022982254
 10
-22.044167072833176
 20
9.012885666280903
 10
-22.129178992803375
 20
9.370854031763386
 10
-22.257370732889406
 20
9.71572394201497
 10
-22.426814169999183
 20
10.042308232579664
 10
-22.63496071712018
 20
10.345694771741881
 10
-22.9313783657888
 20
10.6727412488544
 10
-23.2129020865227
 20
10.909622594441934
 10
-23.521305423310647
 20
11.110260973326135
 10
-23.85194970290473
 20
11.27163859753386
 10
-24.199861727575303
 20
11.391328197386319
 10
-24.559808576633916
 20
11.467529529894342
 10
-24.926376314431263
 20
11.499096456088612
 10
-36.220693690799
 20
11.49187137003607
 10
-36.585270966048384
 20
11.442355841209691
 10
-36.941045221196674
 20
11.348584541779111
 10
-37.28266528029084
 20
11.21196787937033
 10
-37.604992859661294
 20
11.034560695749121
 10
-37.903179852490936
 20
10.81903136008821
 10
-38.1727412488544
 20
10.568621634211201
 10
-38.409622594441934
 20
10.2870979134773
 10
-38.610260973326135
 20
9.978694576689353
 10
-38.77163859753386
 20
9.64805029709527
 10
-38.89132819738632
 20
9.300138272424695
 10
-38.96752952989434
 20
8.940191423366086
 10
-38.999096456088616
 20
8.573623685568737
 10
-39.0
 20
-8.5
 10
-38.97743860379613
 20
-8.86723202559765
 10
-38.94235584120969
 20
-9.085270966048386
 10
-38.870821007196625
 20
-9.370854031763388
 10
-38.79897839650422
 20
-9.579685109604965
 10
-38.67967290358654
 20
-9.84883398896382
 10
-38.57318583000082
 20
-10.042308232579666
 10
-38.409622594441934
 20
-10.2870979134773
 10
-38.27162653951945
 20
-10.45951852886133
 10
-38.0686216342112
 20
-10.6727412488544
 10
-37.84569477174188
 20
-10.865039282879819
 10
-37.666710699058804
 20
-10.994408836907636
 10
-37.47869457668935
 20
-11.110260973326135
 10
-37.21572394201497
 20
-11.242629267110592
 10
-36.941045221196674
 20
-11.348584541779111
 10
-36.72894053970979
 20
-11.410093759583631
 10
-36.5128856662809
 20
-11.455832927166824
 10
-36.220693690799
 20
-11.49187137003607
  0
LWPOLYLINE
  5
91
330
17
100
AcDbEntity
  8
CUT
100
AcDbPolyline
 90
35
 70
1
 10
-18.796477593682297
 20
5.295633932679568
 10
-18.790223394978323
 20
-5.359133877758981
 10
-18.73438663477095
 20
-5.607786262518559
 10
-18.631113088441325
 20
-5.840767649898719
 10
-18.48437150045843
 20
-6.04912469583991
 10
-18.299801067754814
 20
-6.2248503559145885
 10
-18.08449472855099
 20
-6.36119159155417
 10
-17.846726584717366
 20
-6.452908885534072
 10
-17.59563393267957
 20
-6.496477593682298
 10
-17.340866122241017
 20
-6.490223394978323
 10
-17.1226299195692
 20
-6.444022436451872
 10
-16.91550527144901
 20
-6.36119159155417
 10
-16.7514493511568
 20
-6.262860257097059
 10
-16.580761184457486
 20
-6.119238815542512
 10
-16.43713974290294
 20
-5.948550648843199
 10
-16.324813918939522
 20
-5.755821621459368
 10
-16.247091114465928
 20
-5.546726584717368
 10
-16.206259855326145
 20
-5.3274222824284285
 10
-16.209776605021677
 20
5.359133877758981
 10
-16.26561336522905
 20
5.607786262518559
 10
-16.35350235634714
 20
5.812815757873797
 10
-16.495086410628442
 20
6.024711269412739
 10
-16.650875304160092
 20
6.184371500458431
 10
-16.85923235010128
 20
6.331113088441326
 10
-17.062043190590114
 20
6.424007284737927
 10
-17.30925038320803
 20
6.485929462954216
 10
-17.531903597079786
 20
6.499608464305066
 10
-17.78483161220393
 20
6.468412769050087
 10
-17.997488462074617
 20
6.401043392264673
 10
-18.222241302925482
 20
6.280910495993309
 10
-18.39640270815819
 20
6.141521207836908
 10
-18.544169790924837
 20
5.974409095840164
 10
-18.675186081060478
 20
5.755821621459367
 10
-18.76104062915291
 20
5.515874233874244
 10
-18.796477593682297
 20
5.295633932679568
  0
LWPOLYLINE
  5
92
330
17
100
AcDbEntity
  8
CUT
100
AcDbPolyline
 90
60
 70
1
 10
-10.147203022982254
 20
-11.496386368615518
 10
0.0
 20
-11.5
 10
0.36723202559764884
 20
-11.47743860379613
 10
0.7289405397097919
 20
-11.410093759583631
 10
1.0796851096049649
 20
-11.298978396504216
 10
1.4141902104779933
 20
-11.145763793045065
 10
1.727424574253536
 20
-10.95275443945475
 10
2.014676864541055
 20
-10.722853376064878
 10
2.2716265395194535
 20
-10.45951852886133
 10
2.4944088369076356
 20
-10.166710699058807
 10
2.679672903586546
 20
-9.84883398896382
 10
2.8246321955490625
 20
-9.51066956017666
 10
2.910093759583632
 20
-9.228940539709791
 10
2.967529529894343
 20
-8.940191423366086
 10
2.999096456088613
 20
-8.573623685568737
 10
2.991871370036071
 20
8.720693690799003
 10
2.927106390115586
 20
9.15730372047061
 10
2.8246321955490625
 20
9.51066956017666
 10
2.679672903586546
 20
9.84883398896382
 10
2.4944088369076356
 20
10.166710699058807
 10
2.2716265395194535
 20
10.45951852886133
 10
2.014676864541055
 20
10.722853376064878
 10
1.727424574253536
 20
10.95275443945475
 10
1.3488339889638197
 20
11.179672903586546
 10
1.0106695601766602
 20
11.324632195549063
 10
0.7289405397097919
 20
11.410093759583631
 10
0.36723202559764884
 20
11.47743860379613
 10
0.07362368556873679
 20
11.499096456088612
 10
-10.0
 20
11.5
 10
-10.294051420988682
 20
11.48555418001659
 10
-10.657303720470608
 20
11.427106390115586
 10
-11.010669560176659
 20
11.324632195549063
 10
-11.34883398896382
 20
11.179672903586546
 10
-11.666710699058806
 20
10.994408836907636
 10
-11.95951852886133
 20
10.771626539519453
 10
-12.271626539519453
 20
10.45951852886133
 10
-12.494408836907636
 20
10.166710699058807
 10
-12.679672903586546
 20
9.84883398896382
 10
-12.824632195549063
 20
9.510669560176659
 10
-12.910093759583631
 20
9.228940539709793
 10
-12.97743860379613
 20
8.86723202559765
 10
-12.999096456088612
 20
8.573623685568737
 10
-13.0
 20
-8.5
 10
-12.97743860379613
 20
-8.86723202559765
 10
-12.927106390115586
 20
-9.15730372047061
 10
-12.870821007196627
 20
-9.370854031763388
 10
-12.77163859753386
 20
-9.64805029709527
 10
-12.679672903586546
 20
-9.84883398896382
 10
-12.573185830000817
 20
-10.042308232579666
 10
-12.409622594441934
 20
-10.2870979134773
 10
-12.271626539519453
 20
-10.45951852886133
 10
-12.068621634211201
 20
-10.6727412488544
 10
-11.903179852490936
 20
-10.81903136008821
 10
-11.666710699058806
 20
-10.994408836907636
 10
-11.414190210477994
 20
-11.145763793045065
 10
-11.21572394201497
 20
-11.242629267110592
 10
-10.941045221196674
 20
-11.348584541779111
 10
-10.657303720470608
 20
-11.427106390115586
 10
-10.367232025597648
 20
-11.47743860379613
 10
-10.147203022982254
 20
-11.496386368615518
  0
LWPOLYLINE
  5
93
330
17
100
AcDbEntity
  8
CUT
100
AcDbPolyline
 90
60
 70
1
 10
9.852796977017746
 20
-11.496386368615518
 10
18.5
 20
-11.5
 10
18.940191423366084
 20
-11.467529529894342
 10
19.300138272424697
 20
-11.391328197386319
 10
19.64805029709527
 20
-11.27163859753386
 10
19.978694576689353
 20
-11.110260973326135
 10
20.2870979134773
 20
-10.909622594441934
 10
20.5686216342112
 20
-10.6727412488544
 10
20.86503928287982
 20
-10.345694771741881
 10
21.073185830000817
 20
-10.042308232579664
 10
21.242629267110594
 20
-9.71572394201497
 10
21.34858454177911
 20
-9.441045221196674
 10
21.427106390115586
 20
-9.157303720470608
 10
21.47743860379613
 20
-8.867232025597648
 10
21.499096456088612
 20
-8.573623685568737
 10
21.491871370036073
 20
8.720693690799003
 10
21.427106390115586
 20
9.15730372047061
 10
21.324632195549064
 20
9.51066956017666
 10
21.145763793045067
 20
9.914190210477994
 10
20.95275443945475
 20
10.227424574253536
 10
20.6727412488544
 20
10.568621634211201
 10
20.403179852490936
 20
10.81903136008821
 10
20.042308232579664
 20
11.073185830000817
 10
19.715723942014968
 20
11.242629267110592
 10
19.441045221196674
 20
11.348584541779111
 10
19.15730372047061
 20
11.427106390115586
 10
18.867232025597648
 20
11.47743860379613
 10
18.573623685568737
 20
11.499096456088612
 10
10.0
 20
11.5
 10
9.632767974402352
 20
11.47743860379613
 10
9.271059460290209
 20
11.410093759583631
 10
8.851949702904731
 20
11.27163859753386
 10
8.521305423310649
 20
11.110260973326135
 10
8.2129020865227
 20
10.909622594441934
 10
7.931378365788799
 20
10.6727412488544
 10
7.634960717120181
 20
10.345694771741881
 10
7.426814169999184
 20
10.042308232579666
 10
7.257370732889408
 20
9.71572394201497
 10
7.15141545822089
 20
9.441045221196674
 10
7.072893609884415
 20
9.15730372047061
 10
7.02256139620387
 20
8.86723202559765
 10
7.000903543911387
 20
8.573623685568737
 10
7.0
 20
-8.5
 10
7.02256139620387
 20
-8.86723202559765
 10
7.057644158790309
 20
-9.085270966048386
 10
7.129178992803373
 20
-9.370854031763388
 10
7.22836140246614
 20
-9.64805029709527
 10
7.320327096413454
 20
-9.84883398896382
 10
7.426814169999184
 20
-10.042308232579666
 10
7.5903774055580655
 20
-10.2870979134773
 10
7.777146623935123
 20
-10.514676864541055
 10
7.931378365788799
 20
-10.6727412488544
 10
8.096820147509064
 20
-10.81903136008821
 10
8.333289300941194
 20
-10.994408836907636
 10
8.585809789522006
 20
-11.145763793045065
 10
8.78427605798503
 20
-11.242629267110592
 10
9.058954778803326
 20
-11.348584541779111
 10
9.342696279529392
 20
-11.427106390115586
 10
9.632767974402352
 20
-11.47743860379613
 10
9.852796977017746
 20
-11.496386368615518
  0
LWPOLYLINE
  5
94
330
17
100
AcDbEntity
  8
CUT
100
AcDbPolyline
 90
35
 70
1
 10
-7.021586287736351
 20
16.29614778133776
 10
-8.91963298281833
 20
16.299759054956965
 10
-9.075280992125496
 20
16.280561704030823
 10
-9.206146745892072
 20
16.23910362600903
 10
-9.344456186415682
 20
16.165175689842037
 10
-9.465685424949237
 20
16.065685424949237
 10
-9.565175689842036
 20
15.944456186415682
 10
-9.63910362600903
 20
15.806146745892072
 10
-9.684628224322584
 20
15.656072257612903
 10
-9.7
 20
15.5
 10
-9.684628224322584
 20
15.343927742387097
 10
-9.63910362600903
 20
15.193853254107928
 10
-9.542566025184517
 20
15.023440556406053
 10
-9.392185272464502
 20
14.869322857898716
 10
-9.206146745892072
 20
14.76089637399097
 10
-9.01738437956429
 20
14.708658792028174
 10
-7.08036701718167
 20
14.700240945043037
 10
-6.943927742387097
 20
14.715371775677415
 10
-6.793853254107928
 20
14.76089637399097
 10
-6.6720019040903225
 20
14.824117147800234
 10
-6.5774617256369785
 20
14.894232922794812
 10
-6.48159163730981
 20
14.992485372669083
 10
-6.40393040711303
 20
15.105681446216172
 10
-6.353605760932209
 20
15.21208397077201
 10
-6.3153717756774155
 20
15.343927742387097
 10
-6.300240945043036
 20
15.48036701718167
 10
-6.308658792028176
 20
15.617384379564289
 10
-6.340377455525571
 20
15.750945392319114
 10
-6.394462988521316
 20
15.877117389460798
 10
-6.457433974815484
 20
15.976559443593947
 10
-6.548367564210347
 20
16.079397666361174
 10
-6.655543813584318
 20
16.165175689842037
 10
-6.775806948796008
 20
16.231367804562826
 10
-6.905615856077389
 20
16.276025002555635
 10
-7.021586287736351
 20
16.29614778133776
  0
LWPOLYLINE
  5
95
330
17
100
AcDbEntity
  8
CUT
100
AcDbPolyline
 90
33
 70
1
 10
-20.469436010344765
 20
21.904904148492985
 10
-20.469436010344765
 20
22.21855899754758
 10
-20.53062703584875
 20
22.52618705662742
 10
-20.650657550062913
 20
22.815966351941878
 10
-20.824914847639903
 20
23.076760827682115
 10
-21.04670231835845
 20
23.29854829840066
 10
-21.307496794098686
 20
23.47280559597765
 10
-21.597276089413143
 20
23.592836110191815
 10
-21.904904148492985
 20
23.6540271356958
 10
-22.21855899754758
 20
23.6540271356958
 10
-22.52618705662742
 20
23.592836110191815
 10
-22.815966351941878
 20
23.47280559597765
 10
-23.076760827682115
 20
23.29854829840066
 10
-23.29854829840066
 20
23.076760827682115
 10
-23.47280559597765
 20
22.815966351941878
 10
-23.592836110191815
 20
22.52618705662742
 10
-23.6540271356958
 20
22.21855899754758
 10
-23.6540271356958
 20
21.904904148492985
 10
-23.592836110191815
 20
21.597276089413143
 10
-23.47280559597765
 20
21.307496794098686
 10
-23.29854829840066
 20
21.04670231835845
 10
-23.076760827682115
 20
20.824914847639903
 10
-22.815966351941878
 20
20.650657550062913
 10
-22.52618705662742
 20
20.53062703584875
 10
-22.21855899754758
 20
20.469436010344765
 10
-21.904904148492985
 20
20.469436010344765
 10
-21.597276089413143
 20
20.53062703584875
 10
-21.307496794098686
 20
20.650657550062913
 10
-21.04670231835845
 20
20.824914847639903
 10
-20.824914847639903
 20
21.04670231835845
 10
-20.650657550062913
 20
21.307496794098686
 10
-20.53062703584875
 20
21.597276089413143
 10
-20.469436010344765
 20
21.904904148492985
  0
LWPOLYLINE
  5
96
330
17
100
AcDbEntity
  8
CUT
100
AcDbPolyline
 90
65
 70
1
 10
-38.138057907474476
 20
42.110079247714275
 10
-38.127701950799164
 20
42.53193415384137
 10
-38.158744872418396
 20
42.95277277454947
 10
-38.230887712027176
 20
43.368542203867385
 10
-38.343435694642785
 20
43.775238354908076
 10
-38.49530492166767
 20
44.1689445214143
 10
-38.68503280942539
 20
44.545869097780916
 10
-38.91079217464104
 20
44.90238209428958
 10
-39.170408831214964
 20
45.23505009589409
 10
-39.46138252882346
 20
45.54066932788415
 10
-39.78091103169615
 20
45.816296509987254
 10
-40.125917105678326
 20
46.059277201766584
 10
-40.493078153678034
 20
46.26727136633356
 10
-40.878858214092396
 20
46.43827590618223
 10
-41.27954201405078
 20
46.57064395411324
 10
-41.691270749523554
 20
46.66310073346529
 10
-42.110079247714275
 20
46.714755834911216
 10
-42.53193415384137
 20
46.72511179158653
 10
-42.95277277454947
 20
46.694068869967296
 10
-43.368542203867385
 20
46.621926030358516
 10
-43.775238354908076
 20
46.509378047742906
 10
-44.1689445214143
 20
46.357508820718024
 10
-44.545869097780916
 20
46.167780932960305
 10
-44.90238209428958
 20
45.94202156774465
 10
-45.23505009589409
 20
45.68240491117073
 10
-45.54066932788415
 20
45.391431213562235
 10
-45.816296509987254
 20
45.07190271068954
 10
-46.059277201766584
 20
44.726896636707366
 10
-46.26727136633356
 20
44.35973558870766
 10
-46.43827590618223
 20
43.973955528293295
 10
-46.57064395411324
 20
43.57327172833491
 10
-46.66310073346529
 20
43.16154299286214
 10
-46.714755834911216
 20
42.74273449467142
 10
-46.72511179158653
 20
42.32087958854432
 10
-46.694068869967296
 20
41.90004096783622
 10
-46.621926030358516
 20
41.48427153851831
 10
-46.509378047742906
 20
41.077575387477616
 10
-46.357508820718024
 20
40.68386922097139
 10
-46.167780932960305
 20
40.306944644604776
 10
-45.94202156774465
 20
39.950431648096114
 10
-45.68240491117073
 20
39.6177636464916
 10
-45.391431213562235
 20
39.31214441450154
 10
-45.07190271068954
 20
39.03651723239844
 10
-44.726896636707366
 20
38.79353654061911
 10
-44.35973558870766
 20
38.58554237605213
 10
-43.973955528293295
 20
38.41453783620347
 10
-43.57327172833491
 20
38.282169788272455
 10
-43.16154299286214
 20
38.1897130089204
 10
-42.74273449467142
 20
38.138057907474476
 10
-42.32087958854432
 20
38.127701950799164
 10
-41.90004096783622
 20
38.158744872418396
 10
-41.48427153851831
 20
38.230887712027176
 10
-41.07757538747761
 20
38.343435694642785
 10
-40.68386922097139
 20
38.49530492166767
 10
-40.306944644604776
 20
38.68503280942539
 10
-39.950431648096114
 20
38.91079217464104
 10
-39.6177636464916
 20
39.170408831214964
 10
-39.31214441450154
 20
39.46138252882346
 10
-39.03651723239844
 20
39.78091103169615
 10
-38.79353654061911
 20
40.125917105678326
 10
-38.58554237605213
 20
40.49307815367804
 10
-38.414537836203465
 20
40.878858214092396
 10
-38.282169788272455
 20
41.27954201405078
 10
-38.1897130089204
 20
41.691270749523554
 10
-38.138057907474476
 20
42.110079247714275
  0
LWPOLYLINE
  5
97
330
17
100
AcDbEntity
  8
CUT
100
AcDbPolyline
 90
65
 70
1
 10
46.714755834911216
 20
-42.74273449467142
 10
46.72511179158653
 20
-42.32087958854432
 10
46.694068869967296
 20
-41.90004096783622
 10
46.621926030358516
 20
-41.48427153851831
 10
46.509378047742906
 20
-41.077575387477616
 10
46.357508820718024
 20
-40.68386922097139
 10
46.167780932960305
 20
-40.306944644604776
 10
45.94202156774465
 20
-39.950431648096114
 10
45.68240491117073
 20
-39.6177636464916
 10
45.391431213562235
 20
-39.31214441450154
 10
45.07190271068954
 20
-39.03651723239844
 10
44.726896636707366
 20
-38.79353654061911
 10
44.35973558870766
 20
-38.58554237605213
 10
43.973955528293295
 20
-38.414537836203465
 10
43.57327172833491
 20
-38.282169788272455
 10
43.16154299286214
 20
-38.1897130089204
 10
42.74273449467142
 20
-38.138057907474476
 10
42.32087958854432
 20
-38.127701950799164
 10
41.90004096783622
 20
-38.158744872418396
 10
41.48427153851831
 20
-38.230887712027176
 10
41.077575387477616
 20
-38.343435694642785
 10
40.68386922097139
 20
-38.49530492166767
 10
40.306944644604776
 20
-38.68503280942539
 10
39.950431648096114
 20
-38.91079217464104
 10
39.6177636464916
 20
-39.170408831214964
 10
39.31214441450154
 20
-39.46138252882346
 10
39.03651723239844
 20
-39.78091103169615
 10
38.79353654061911
 20
-40.125917105678326
 10
38.58554237605213
 20
-40.493078153678034
 10
38.414537836203465
 20
-40.878858214092396
 10
38.282169788272455
 20
-41.27954201405078
 10
38.1897130089204
 20
-41.691270749523554
 10
38.138057907474476
 20
-42.110079247714275
 10
38.127701950799164
 20
-42.53193415384137
 10
38.158744872418396
 20
-42.95277277454947
 10
38.230887712027176
 20
-43.368542203867385
 10
38.343435694642785
 20
-43.775238354908076
 10
38.49530492166767
 20
-44.1689445214143
 10
38.68503280942539
 20
-44.545869097780916
 10
38.91079217464104
 20
-44.90238209428958
 10
39.170408831214964
 20
-45.23505009589409
 10
39.46138252882346
 20
-45.54066932788415
 10
39.78091103169615
 20
-45.816296509987254
 10
40.125917105678326
 20
-46.059277201766584
 10
40.493078153678034
 20
-46.26727136633356
 10
40.878858214092396
 20
-46.43827590618222
 10
41.27954201405078
 20
-46.57064395411324
 10
41.691270749523554
 20
-46.66310073346529
 10
42.110079247714275
 20
-46.714755834911216
 10
42.53193415384137
 20
-46.72511179158653
 10
42.95277277454947
 20
-46.694068869967296
 10
43.368542203867385
 20
-46.621926030358516
 10
43.77523835490808
 20
-46.509378047742906
 10
44.1689445214143
 20
-46.357508820718024
 10
44.545869097780916
 20
-46.167780932960305
 10
44.90238209428958
 20
-45.94202156774465
 10
45.23505009589409
 20
-45.68240491117073
 10
45.54066932788415
 20
-45.391431213562235
 10
45.816296509987254
 20
-45.07190271068954
 10
46.059277201766584
 20
-44.726896636707366
 10
46.26727136633356
 20
-44.35973558870765
 10
46.43827590618223
 20
-43.973955528293295
 10
46.57064395411324
 20
-43.57327172833491
 10
46.66310073346529
 20
-43.16154299286214
 10
46.714755834911216
 20
-42.74273449467142
  0
LWPOLYLINE
  5
98
330
17
100
AcDbEntity
  8
CUT
100
AcDbPolyline
 90
33
 70
1
 10
23.657396303706186
 20
-22.17943487477975
 10
23.649698828378217
 20
-21.865874492701536
 10
23.58097666196914
 20
-21.559840788382054
 10
23.45387075879422
 20
-21.273094465452626
 10
23.27326572743066
 20
-21.016655024294238
 10
23.046102117949285
 20
-20.800377288817714
 10
22.781109700467653
 20
-20.632572691107455
 10
22.48847198498012
 20
-20.519689867747577
 10
22.179434874779748
 20
-20.466066842334378
 10
21.865874492701536
 20
-20.473764317662347
 10
21.559840788382054
 20
-20.542486484071425
 10
21.273094465452626
 20
-20.669592387246343
 10
21.016655024294238
 20
-20.850197418609905
 10
20.80037728881771
 20
-21.07736102809128
 10
20.632572691107455
 20
-21.34235344557291
 10
20.519689867747577
 20
-21.634991161060444
 10
20.466066842334378
 20
-21.944028271260812
 10
20.473764317662347
 20
-22.257588653339027
 10
20.542486484071425
 20
-22.56362235765851
 10
20.669592387246343
 20
-22.850368680587938
 10
20.850197418609905
 20
-23.106808121746326
 10
21.07736102809128
 20
-23.323085857222853
 10
21.34235344557291
 20
-23.490890454933105
 10
21.634991161060444
 20
-23.603773278292987
 10
21.944028271260816
 20
-23.657396303706186
 10
22.257588653339027
 20
-23.649698828378217
 10
22.56362235765851
 20
-23.58097666196914
 10
22.850368680587938
 20
-23.45387075879422
 10
23.106808121746326
 20
-23.27326572743066
 10
23.323085857222853
 20
-23.046102117949285
 10
23.49089045493311
 20
-22.781109700467653
 10
23.603773278292987
 20
-22.48847198498012
 10
23.657396303706186
 20
-22.17943487477975
  0
LWPOLYLINE
  5
99
330
17
100
AcDbEntity
  8
CUT
100
AcDbPolyline
 90
35
 70
1
 10
28.97841371226365
 20
-14.703852218662242
 10
27.080367017181672
 20
-14.700240945043037
 10
26.943927742387096
 20
-14.715371775677415
 10
26.79385325410793
 20
-14.76089637399097
 10
26.65554381358432
 20
-14.834824310157964
 10
26.53431457505076
 20
-14.934314575050761
 10
26.434824310157964
 20
-15.055543813584318
 10
26.360896373990972
 20
-15.193853254107928
 10
26.315371775677416
 20
-15.343927742387097
 10
26.3
 20
-15.5
 10
26.315371775677416
 20
-15.656072257612903
 10
26.360896373990972
 20
-15.806146745892072
 10
26.469322857898714
 20
-15.992185272464502
 10
26.607814727535498
 20
-16.130677142101284
 10
26.775806948796006
 20
-16.231367804562826
 10
26.98261562043571
 20
-16.291341207971826
 10
28.919632982818328
 20
-16.299759054956965
 10
29.056072257612904
 20
-16.284628224322585
 10
29.20614674589207
 20
-16.23910362600903
 10
29.327998095909678
 20
-16.175882852199766
 10
29.437247163877615
 20
-16.092760900283967
 10
29.530677142101286
 20
-15.992185272464502
 10
29.59606959288697
 20
-15.894318553783828
 10
29.646394239067792
 20
-15.78791602922799
 10
29.684628224322584
 20
-15.656072257612903
 10
29.699759054956964
 20
-15.51963298281833
 10
29.691341207971824
 20
-15.382615620435711
 10
29.65962254447443
 20
-15.249054607680886
 10
29.605537011478685
 20
-15.122882610539202
 10
29.530677142101286
 20
-15.007814727535498
 10
29.451632435789655
 20
-14.920602333638826
 10
29.360646553134277
 20
-14.845932149478733
 10
29.242044074744225
 20
-14.776808565501245
 10
29.11337020597992
 20
-14.728979147363647
 10
28.97841371226365
 20
-14.703852218662242
  0
LWPOLYLINE
  5
9A
330
17
100
AcDbEntity
  8
CUT
100
AcDbPolyline
 90
35
 70
1
 10
46.978413712263645
 20
-10.003852218662242
 10
45.08036701718167
 20
-10.000240945043037
 10
44.9247190078745
 20
-10.019438295969177
 10
44.79385325410793
 20
-10.060896373990971
 10
44.655543813584316
 20
-10.134824310157965
 10
44.534314575050765
 20
-10.234314575050762
 10
44.434824310157964
 20
-10.355543813584319
 10
44.36089637399097
 20
-10.493853254107929
 10
44.31537177567741
 20
-10.643927742387097
 10
44.3
 20
-10.8
 10
44.31537177567741
 20
-10.956072257612904
 10
44.36089637399097
 20
-11.106146745892072
 10
44.46932285789872
 20
-11.292185272464502
 10
44.6078147275355
 20
-11.430677142101285
 10
44.79385325410793
 20
-11.53910362600903
 10
44.98261562043571
 20
-11.591341207971826
 10
46.91963298281833
 20
-11.599759054956964
 10
47.0752809921255
 20
-11.580561704030824
 10
47.20614674589207
 20
-11.53910362600903
 10
47.31128219535458
 20
-11.486182888000219
 10
47.42253827436302
 20
-11.405767077205189
 10
47.51840836269019
 20
-11.307514627330917
 10
47.59606959288697
 20
-11.194318553783829
 10
47.653235252146416
 20
-11.069511882713776
 10
47.68462822432259
 20
-10.956072257612904
 10
47.699759054956964
 20
-10.81963298281833
 10
47.691341207971824
 20
-10.682615620435712
 10
47.66555226858577
 20
-10.567772258196431
 10
47.61457944095641
 20
-10.440310936276315
 10
47.54256602518451
 20
-10.323440556406053
 10
47.451632435789655
 20
-10.220602333638826
 10
47.344456186415684
 20
-10.134824310157965
 10
47.24204407474423
 20
-10.076808565501246
 10
47.11337020597992
 20
-10.028979147363648
 10
46.978413712263645
 20
-10.003852218662242
  0
LWPOLYLINE
  5
9B
330
17
100
AcDbEntity
  8
CUT
100
AcDbPolyline
 90
66
 70
1
 10
28.352796977017746
 20
-11.496386368615518
 10
30.5
 20
-11.5
 10
30.794051420988684
 20
-11.48555418001659
 10
31.085270966048384
 20
-11.442355841209691
 10
31.370854031763386
 20
-11.370821007196627
 10
31.64805029709527
 20
-11.27163859753386
 10
31.914190210477994
 20
-11.145763793045065
 10
32.22742457425353
 20
-10.95275443945475
 10
32.51467686454105
 20
-10.722853376064878
 10
32.77162653951945
 20
-10.45951852886133
 10
32.99440883690764
 20
-10.166710699058807
 10
33.17967290358655
 20
-9.84883398896382
 10
33.324632195549064
 20
-9.51066956017666
 10
33.42710639011558
 20
-9.157303720470608
 10
33.48555418001659
 20
-8.794051420988682
 10
33.5
 20
-8.5
 10
33.5
 20
8.5
 10
33.47743860379613
 20
8.867232025597648
 10
33.44235584120969
 20
9.085270966048384
 10
33.370821007196625
 20
9.370854031763386
 10
33.29897839650422
 20
9.579685109604965
 10
33.17967290358655
 20
9.84883398896382
 10
33.07318583000082
 20
10.042308232579664
 10
32.909622594441934
 20
10.2870979134773
 10
32.621320343559645
 20
10.621320343559642
 10
32.403179852490936
 20
10.81903136008821
 10
32.22742457425353
 20
10.95275443945475
 10
31.978694576689353
 20
11.110260973326135
 10
31.782665280290846
 20
11.21196787937033
 10
31.579685109604966
 20
11.298978396504216
 10
31.300138272424697
 20
11.391328197386319
 10
31.012885666280905
 20
11.455832927166824
 10
30.794051420988684
 20
11.48555418001659
 10
30.5
 20
11.5
 10
28.279306309200997
 20
11.49187137003607
 10
27.987114333719095
 20
11.455832927166824
 10
27.699861727575303
 20
11.391328197386319
 10
27.420314890395037
 20
11.298978396504216
 10
27.15116601103618
 20
11.179672903586546
 10
26.833289300941193
 20
10.994408836907636
 10
26.54048147113867
 20
10.771626539519453
 10
26.277146623935124
 20
10.514676864541055
 10
26.04724556054525
 20
10.227424574253536
 10
25.820327096413454
 20
9.84883398896382
 10
25.675367804450936
 20
9.510669560176659
 10
25.572893609884414
 20
9.15730372047061
 10
25.514445819983408
 20
8.794051420988682
 10
25.5
 20
8.5
 10
25.5
 20
-8.5
 10
25.532470470105658
 20
-8.940191423366086
 10
25.572893609884414
 20
-9.15730372047061
 10
25.65141545822089
 20
-9.441045221196674
 10
25.757370732889406
 20
-9.71572394201497
 10
25.854236206954937
 20
-9.914190210477994
 10
25.96543930425088
 20
-10.10499285966129
 10
26.13496071712018
 20
-10.345694771741881
 10
26.3272587511456
 20
-10.568621634211201
 10
26.485323135458945
 20
-10.722853376064876
 10
26.7129020865227
 20
-10.909622594441934
 10
26.89500714033871
 20
-11.034560695749121
 10
27.085809789522006
 20
-11.145763793045065
 10
27.35194970290473
 20
-11.27163859753386
 10
27.558954778803326
 20
-11.348584541779111
 10
27.84269627952939
 20
-11.427106390115586
 10
28.132767974402352
 20
-11.47743860379613
 10
28.352796977017746
 20
-11.496386368615518
  0
LWPOLYLINE
  5
9C
330
17
100
AcDbEntity
  8
CUT
100
AcDbPolyline
 90
60
 70
1
 10
42.779306309201
 20
-6.491871370036071
 10
47.073623685568734
 20
-6.499096456088613
 10
47.44019142336609
 20
-6.4675295298943425
 10
47.8001382724247
 20
-6.391328197386319
 10
48.079685109604966
 20
-6.298978396504216
 10
48.41419021047799
 20
-6.145763793045065
 10
48.666710699058804
 20
-5.994408836907636
 10
48.95951852886133
 20
-5.7716265395194535
 10
49.1727412488544
 20
-5.5686216342112
 10
49.409622594441934
 20
-5.2870979134773
 10
49.610260973326135
 20
-4.978694576689352
 10
49.77163859753386
 20
-4.648050297095269
 10
49.870821007196625
 20
-4.370854031763387
 10
49.94235584120969
 20
-4.085270966048385
 10
49.98555418001659
 20
-3.794051420988682
 10
49.999096456088616
 20
-3.5736236855687364
 10
50.0
 20
3.5
 10
49.96752952989434
 20
3.9401914233660853
 10
49.89132819738632
 20
4.300138272424695
 10
49.742629267110594
 20
4.71572394201497
 10
49.57318583000082
 20
5.042308232579665
 10
49.36503928287982
 20
5.345694771741881
 10
49.121320343559645
 20
5.621320343559643
 10
48.787097913477304
 20
5.9096225944419345
 10
48.47869457668935
 20
6.110260973326135
 10
48.14805029709527
 20
6.27163859753386
 10
47.941045221196674
 20
6.34858454177911
 10
47.65730372047061
 20
6.427106390115586
 10
47.36723202559765
 20
6.47743860379613
 10
47.073623685568734
 20
6.499096456088613
 10
43.0
 20
6.5
 10
42.70594857901132
 20
6.485554180016591
 10
42.414729033951616
 20
6.442355841209691
 10
42.058954778803326
 20
6.34858454177911
 10
41.71733471970916
 20
6.211967879370331
 10
41.395007140338706
 20
6.034560695749121
 10
41.096820147509064
 20
5.8190313600882115
 10
40.8272587511456
 20
5.568621634211201
 10
40.590377405558066
 20
5.2870979134773
 10
40.389739026673865
 20
4.978694576689352
 10
40.22836140246614
 20
4.64805029709527
 10
40.129178992803375
 20
4.370854031763387
 10
40.05764415879031
 20
4.085270966048386
 10
40.01444581998341
 20
3.7940514209886826
 10
40.000903543911384
 20
3.573623685568737
 10
40.0
 20
-3.5
 10
40.01444581998341
 20
-3.7940514209886826
 10
40.07289360988442
 20
-4.15730372047061
 10
40.20102160349578
 20
-4.579685109604965
 10
40.28803212062967
 20
-4.782665280290846
 10
40.42681416999918
 20
-5.042308232579665
 10
40.68096863991179
 20
-5.403179852490936
 10
40.878679656440355
 20
-5.621320343559643
 10
41.04048147113867
 20
-5.7716265395194535
 10
41.395007140338706
 20
-6.034560695749121
 10
41.65116601103618
 20
-6.179672903586546
 10
41.85194970290473
 20
-6.27163859753386
 10
42.058954778803326
 20
-6.34858454177911
 10
42.34269627952939
 20
-6.427106390115586
 10
42.779306309201
 20
-6.491871370036071
  0
LWPOLYLINE
  5
9D
330
17
100
AcDbEntity
  8
CUT
100
AcDbPolyline
 90
35
 70
1
 10
46.978413712263645
 20
11.59614778133776
 10
45.08036701718167
 20
11.599759054956964
 10
44.9247190078745
 20
11.580561704030824
 10
44.79385325410793
 20
11.53910362600903
 10
44.655543813584316
 20
11.465175689842036
 10
44.534314575050765
 20
11.36568542494924
 10
44.434824310157964
 20
11.244456186415682
 10
44.36089637399097
 20
11.106146745892072
 10
44.31537177567741
 20
10.956072257612904
 10
44.3
 20
10.8
 10
44.31537177567741
 20
10.643927742387097
 10
44.36089637399097
 20
10.493853254107929
 10
44.46932285789872
 20
10.307814727535499
 10
44.6078147275355
 20
10.169322857898717
 10
44.79385325410793
 20
10.060896373990971
 10
44.98261562043571
 20
10.008658792028175
 10
46.91963298281833
 20
10.000240945043037
 10
47.0752809921255
 20
10.019438295969177
 10
47.20614674589207
 20
10.060896373990971
 10
47.31128219535458
 20
10.113817111999783
 10
47.42253827436302
 20
10.194232922794813
 10
47.51840836269019
 20
10.292485372669084
 10
47.59606959288697
 20
10.405681446216173
 10
47.653235252146416
 20
10.530488117286225
 10
47.68462822432259
 20
10.643927742387097
 10
47.699759054956964
 20
10.780367017181671
 10
47.691341207971824
 20
10.91738437956429
 10
47.66555226858577
 20
11.03222774180357
 10
47.61457944095641
 20
11.159689063723686
 10
47.54256602518451
 20
11.276559443593948
 10
47.451632435789655
 20
11.379397666361175
 10
47.344456186415684
 20
11.465175689842036
 10
47.24204407474423
 20
11.523191434498756
 10
47.11337020597992
 20
11.571020852636353
 10
46.978413712263645
 20
11.59614778133776
  0
LWPOLYLINE
  5
9E
330
17
100
AcDbEntity
  8
CUT
100
AcDbPolyline
 90
35
 70
1
 10
28.958851650879733
 20
16.297832365342952
 10
27.080367017181672
 20
16.299759054956965
 10
26.924719007874504
 20
16.280561704030823
 10
26.77580694879601
 20
16.231367804562826
 10
26.639353446865723
 20
16.154067850521265
 10
26.520602333638827
 20
16.051632435789653
 10
26.424117147800235
 20
15.927998095909677
 10
26.353605760932208
 20
15.78791602922799
 10
26.311777886088848
 20
15.636769511008241
 10
26.300240945043036
 20
15.48036701718167
 10
26.319438295969178
 20
15.324719007874505
 10
26.368632195437176
 20
15.175806948796009
 10
26.469322857898714
 20
15.007814727535498
 10
26.623440556406052
 20
14.857433974815484
 10
26.793853254107926
 20
14.76089637399097
 10
26.98261562043571
 20
14.708658792028174
 10
28.919632982818328
 20
14.700240945043037
 10
29.075280992125496
 20
14.719438295969177
 10
29.22419305120399
 20
14.768632195437176
 10
29.34445618641568
 20
14.834824310157964
 10
29.451632435789655
 20
14.920602333638826
 10
29.530677142101286
 20
15.007814727535498
 10
29.605537011478685
 20
15.122882610539202
 10
29.65962254447443
 20
15.249054607680886
 10
29.691341207971824
 20
15.382615620435711
 10
29.699759054956964
 20
15.51963298281833
 10
29.688222113911152
 20
15.636769511008241
 10
29.653235252146416
 20
15.769511882713775
 10
29.59606959288697
 20
15.894318553783828
 10
29.530677142101286
 20
15.992185272464502
 10
29.437247163877615
 20
16.092760900283967
 10
29.327998095909678
 20
16.175882852199766
 10
29.22419305120399
 20
16.231367804562826
 10
29.09438414392261
 20
16.276025002555635
 10
28.958851650879733
 20
16.297832365342952
  0
LWPOLYLINE
  5
9F
330
17
100
AcDbEntity
  8
CUT
100
AcDbPolyline
 90
33
 70
1
 10
23.6540271356958
 20
21.904904148492985
 10
23.6540271356958
 20
22.21855899754758
 10
23.592836110191815
 20
22.52618705662742
 10
23.47280559597765
 20
22.815966351941878
 10
23.29854829840066
 20
23.076760827682115
 10
23.076760827682115
 20
23.29854829840066
 10
22.815966351941878
 20
23.47280559597765
 10
22.52618705662742
 20
23.592836110191815
 10
22.21855899754758
 20
23.6540271356958
 10
21.904904148492985
 20
23.6540271356958
 10
21.597276089413143
 20
23.592836110191815
 10
21.307496794098686
 20
23.47280559597765
 10
21.04670231835845
 20
23.29854829840066
 10
20.824914847639903
 20
23.076760827682115
 10
20.650657550062913
 20
22.815966351941878
 10
20.53062703584875
 20
22.52618705662742
 10
20.469436010344765
 20
22.21855899754758
 10
20.469436010344765
 20
21.904904148492985
 10
20.53062703584875
 20
21.597276089413143
 10
20.650657550062913
 20
21.307496794098686
 10
20.824914847639903
 20
21.04670231835845
 10
21.04670231835845
 20
20.824914847639903
 10
21.307496794098686
 20
20.650657550062913
 10
21.597276089413143
 20
20.53062703584875
 10
21.904904148492985
 20
20.469436010344765
 10
22.21855899754758
 20
20.469436010344765
 10
22.52618705662742
 20
20.53062703584875
 10
22.815966351941878
 20
20.650657550062913
 10
23.076760827682115
 20
20.824914847639903
 10
23.29854829840066
 20
21.04670231835845
 10
23.47280559597765
 20
21.307496794098686
 10
23.592836110191815
 20
21.597276089413143
 10
23.6540271356958
 20
21.904904148492985
  0
LWPOLYLINE
  5
A0
330
17
100
AcDbEntity
  8
CUT
100
AcDbPolyline
 90
65
 70
1
 10
46.70570119588329
 20
42.00493316777573
 10
46.72640687119284
 20
42.426406871192846
 10
46.70570119588329
 20
42.84788057460996
 10
46.64378357692674
 20
43.2652952558622
 10
46.54125031484134
 20
43.67463098338703
 10
46.39908886099138
 20
44.071945630362734
 10
46.21866830789077
 20
44.45341283954464
 10
46.00172620409379
 20
44.81535887317713
 10
45.75035182065261
 20
45.15429799309652
 10
45.466966030295
 20
45.466966030295
 10
45.15429799309652
 20
45.75035182065261
 10
44.81535887317713
 20
46.00172620409379
 10
44.45341283954463
 20
46.21866830789077
 10
44.071945630362734
 20
46.39908886099138
 10
43.67463098338703
 20
46.54125031484134
 10
43.2652952558622
 20
46.64378357692674
 10
42.84788057460995
 20
46.70570119588329
 10
42.426406871192846
 20
46.72640687119284
 10
42.00493316777574
 20
46.70570119588329
 10
41.58751848652349
 20
46.64378357692674
 10
41.17818275899866
 20
46.54125031484134
 10
40.78086811202296
 20
46.39908886099138
 10
40.39940090284105
 20
46.21866830789077
 10
40.03745486920856
 20
46.00172620409379
 10
39.69851574928917
 20
45.75035182065261
 10
39.385847712090694
 20
45.466966030295
 10
39.102461921733074
 20
45.15429799309652
 10
38.8510875382919
 20
44.81535887317713
 10
38.63414543449492
 20
44.45341283954463
 10
38.453724881394315
 20
44.071945630362734
 10
38.31156342754435
 20
43.67463098338703
 10
38.209030165458955
 20
43.2652952558622
 10
38.1471125465024
 20
42.84788057460996
 10
38.12640687119285
 20
42.426406871192846
 10
38.1471125465024
 20
42.00493316777573
 10
38.209030165458955
 20
41.58751848652349
 10
38.31156342754435
 20
41.17818275899866
 10
38.453724881394315
 20
40.78086811202296
 10
38.63414543449492
 20
40.39940090284105
 10
38.8510875382919
 20
40.03745486920856
 10
39.102461921733074
 20
39.69851574928917
 10
39.385847712090694
 20
39.385847712090694
 10
39.69851574928917
 20
39.102461921733074
 10
40.03745486920856
 20
38.8510875382919
 10
40.39940090284106
 20
38.63414543449492
 10
40.78086811202296
 20
38.453724881394315
 10
41.17818275899866
 20
38.31156342754435
 10
41.58751848652349
 20
38.209030165458955
 10
42.00493316777573
 20
38.1471125465024
 10
42.426406871192846
 20
38.12640687119285
 10
42.84788057460996
 20
38.1471125465024
 10
43.2652952558622
 20
38.209030165458955
 10
43.67463098338703
 20
38.31156342754435
 10
44.071945630362734
 20
38.453724881394315
 10
44.45341283954464
 20
38.63414543449492
 10
44.81535887317713
 20
38.8510875382919
 10
45.15429799309652
 20
39.10246192173308
 10
45.466966030295
 20
39.385847712090694
 10
45.75035182065262
 20
39.69851574928917
 10
46.00172620409379
 20
40.03745486920856
 10
46.21866830789077
 20
40.39940090284106
 10
46.39908886099138
 20
40.78086811202296
 10
46.54125031484134
 20
41.17818275899866
 10
46.64378357692674
 20
41.58751848652349
 10
46.70570119588329
 20
42.00493316777573
  0
LWPOLYLINE
  5
A1
330
17
100
AcDbEntity
  8
CUT
100
AcDbPolyline
 90
65
 70
1
 10
78.99789173087343
 20
-62.17178859966039
 10
78.94735674219098
 20
-62.856874726394516
 10
78.82991491026971
 20
-63.53370868109809
 10
78.64669726415126
 20
-64.19577218279224
 10
78.39946828992471
 20
-64.83668919803493
 10
78.09060893776098
 20
-65.45028734560849
 10
77.72309369206108
 20
-66.03065733992491
 10
77.30046192554539
 20
-66.57220990067644
 10
76.82678381315947
 20
-67.06972958066027
 10
76.30662113406439
 20
-67.51842499338625
 10
75.74498333920968
 20
-67.91397495674795
 10
75.14727930758225
 20
-68.2525701083686
 10
74.51926525574491
 20
-68.53094959184317
 10
73.86698930232428
 20
-68.74643246056807
 10
73.1967332213221
 20
-68.89694349672259
 10
72.51495194519767
 20
-68.98103319675083
 10
71.82821140033961
 20
-68.99789173087343
 10
71.14312527360549
 20
-68.94735674219098
 10
70.46629131890191
 20
-68.82991491026971
 10
69.80422781720776
 20
-68.64669726415126
 10
69.16331080196507
 20
-68.39946828992471
 10
68.54971265439151
 20
-68.09060893776098
 10
67.96934266007509
 20
-67.72309369206108
 10
67.42779009932356
 20
-67.30046192554539
 10
66.93027041933973
 20
-66.82678381315947
 10
66.48157500661375
 20
-66.30662113406439
 10
66.08602504325205
 20
-65.74498333920968
 10
65.7474298916314
 20
-65.14727930758225
 10
65.46905040815683
 20
-64.51926525574491
 10
65.25356753943193
 20
-63.86698930232429
 10
65.10305650327741
 20
-63.196733221322106
 10
65.01896680324917
 20
-62.51495194519767
 10
65.00210826912657
 20
-61.82821140033962
 10
65.05264325780902
 20
-61.143125273605484
 10
65.17008508973029
 20
-60.46629131890191
 10
65.35330273584874
 20
-59.80422781720776
 10
65.60053171007529
 20
-59.163310801965075
 10
65.90939106223902
 20
-58.54971265439151
 10
66.27690630793892
 20
-57.969342660075085
 10
66.69953807445461
 20
-57.427790099323566
 10
67.17321618684053
 20
-56.930270419339735
 10
67.69337886593561
 20
-56.48157500661376
 10
68.25501666079032
 20
-56.08602504325205
 10
68.85272069241775
 20
-55.74742989163139
 10
69.48073474425509
 20
-55.469050408156825
 10
70.13301069767572
 20
-55.25356753943192
 10
70.8032667786779
 20
-55.103056503277415
 10
71.48504805480233
 20
-55.01896680324917
 10
72.17178859966039
 20
-55.00210826912657
 10
72.85687472639451
 20
-55.05264325780903
 10
73.53370868109809
 20
-55.1700850897303
 10
74.19577218279224
 20
-55.35330273584874
 10
74.83668919803493
 20
-55.60053171007529
 10
75.45028734560849
 20
-55.90939106223902
 10
76.03065733992491
 20
-56.276906307938916
 10
76.57220990067644
 20
-56.69953807445461
 10
77.06972958066027
 20
-57.17321618684053
 10
77.51842499338625
 20
-57.69337886593561
 10
77.91397495674795
 20
-58.25501666079032
 10
78.2525701083686
 20
-58.85272069241775
 10
78.53094959184317
 20
-59.48073474425509
 10
78.74643246056807
 20
-60.13301069767571
 10
78.89694349672259
 20
-60.80326677867789
 10
78.98103319675083
 20
-61.48504805480233
 10
78.99789173087343
 20
-62.17178859966039
  0
LWPOLYLINE
  5
A2
330
17
100
AcDbEntity
  8
CUT
100
AcDbPolyline
 90
65
 70
1
 10
76.29870492039367
 20
-61.894472717351476
 10
76.26766199877446
 20
-61.47363409664337
 10
76.19551915916567
 20
-61.05786466732546
 10
76.08297117655006
 20
-60.65116851628477
 10
75.93110194952519
 20
-60.25746234977854
 10
75.74137406176746
 20
-59.88053777341193
 10
75.51561469655181
 20
-59.52402477690327
 10
75.25599803997788
 20
-59.19135677529876
 10
74.96502434236939
 20
-58.88573754330869
 10
74.64549583949669
 20
-58.61011036120559
 10
74.30048976551451
 20
-58.36712966942626
 10
73.93332871751481
 20
-58.159135504859286
 10
73.54754865710045
 20
-57.988130965010626
 10
73.14686485714206
 20
-57.85576291707961
 10
72.7351361216693
 20
-57.763306137727554
 10
72.31632762347857
 20
-57.71165103628163
 10
71.89447271735148
 20
-57.701295079606325
 10
71.47363409664337
 20
-57.73233800122555
 10
71.05786466732546
 20
-57.80448084083433
 10
70.65116851628477
 20
-57.91702882344994
 10
70.25746234977854
 20
-58.06889805047482
 10
69.88053777341193
 20
-58.25862593823254
 10
69.52402477690326
 20
-58.48438530344819
 10
69.19135677529876
 20
-58.74400196002212
 10
68.8857375433087
 20
-59.03497565763061
 10
68.6101103612056
 20
-59.3545041605033
 10
68.36712966942626
 20
-59.69951023448548
 10
68.15913550485928
 20
-60.06667128248519
 10
67.98813096501063
 20
-60.45245134289955
 10
67.8557629170796
 20
-60.85313514285794
 10
67.76330613772755
 20
-61.26486387833071
 10
67.71165103628164
 20
-61.68367237652143
 10
67.70129507960633
 20
-62.105527282648524
 10
67.73233800122554
 20
-62.52636590335663
 10
67.80448084083433
 20
-62.94213533267454
 10
67.91702882344994
 20
-63.34883148371523
 10
68.06889805047481
 20
-63.74253765022146
 10
68.25862593823254
 20
-64.11946222658807
 10
68.48438530344819
 20
-64.47597522309674
 10
68.74400196002212
 20
-64.80864322470124
 10
69.03497565763061
 20
-65.1142624566913
 10
69.35450416050331
 20
-65.3898896387944
 10
69.69951023448549
 20
-65.63287033057374
 10
70.06667128248519
 20
-65.84086449514072
 10
70.45245134289955
 20
-66.01186903498937
 10
70.85313514285794
 20
-66.1442370829204
 10
71.2648638783307
 20
-66.23669386227245
 10
71.68367237652143
 20
-66.28834896371836
 10
72.10552728264852
 20
-66.29870492039367
 10
72.52636590335663
 20
-66.26766199877446
 10
72.94213533267454
 20
-66.19551915916567
 10
73.34883148371523
 20
-66.08297117655006
 10
73.74253765022145
 20
-65.93110194952519
 10
74.11946222658807
 20
-65.74137406176746
 10
74.47597522309674
 20
-65.51561469655181
 10
74.80864322470124
 20
-65.25599803997788
 10
75.1142624566913
 20
-64.96502434236939
 10
75.3898896387944
 20
-64.64549583949669
 10
75.63287033057374
 20
-64.30048976551451
 10
75.84086449514072
 20
-63.93332871751481
 10
76.01186903498937
 20
-63.54754865710045
 10
76.1442370829204
 20
-63.14686485714206
 10
76.23669386227245
 20
-62.73513612166929
 10
76.28834896371836
 20
-62.31632762347857
 10
76.29870492039367
 20
-61.894472717351476
  0
LWPOLYLINE
  5
A3
330
17
100
AcDbEntity
  8
CUT
100
AcDbPolyline
 90
65
 70
1
 10
95.99789173087343
 20
-62.17178859966039
 10
95.94735674219098
 20
-62.856874726394516
 10
95.82991491026971
 20
-63.53370868109809
 10
95.64669726415126
 20
-64.19577218279224
 10
95.39946828992471
 20
-64.83668919803493
 10
95.09060893776098
 20
-65.45028734560849
 10
94.72309369206108
 20
-66.03065733992491
 10
94.30046192554539
 20
-66.57220990067644
 10
93.82678381315947
 20
-67.06972958066027
 10
93.30662113406439
 20
-67.51842499338625
 10
92.74498333920968
 20
-67.91397495674795
 10
92.14727930758225
 20
-68.2525701083686
 10
91.51926525574491
 20
-68.53094959184317
 10
90.86698930232428
 20
-68.74643246056807
 10
90.1967332213221
 20
-68.89694349672259
 10
89.51495194519767
 20
-68.98103319675083
 10
88.82821140033961
 20
-68.99789173087343
 10
88.14312527360549
 20
-68.94735674219098
 10
87.46629131890191
 20
-68.82991491026971
 10
86.80422781720776
 20
-68.64669726415126
 10
86.16331080196507
 20
-68.39946828992471
 10
85.54971265439151
 20
-68.09060893776098
 10
84.96934266007509
 20
-67.72309369206108
 10
84.42779009932356
 20
-67.30046192554539
 10
83.93027041933973
 20
-66.82678381315947
 10
83.48157500661375
 20
-66.30662113406439
 10
83.08602504325205
 20
-65.74498333920968
 10
82.7474298916314
 20
-65.14727930758225
 10
82.46905040815683
 20
-64.51926525574491
 10
82.25356753943193
 20
-63.86698930232429
 10
82.10305650327741
 20
-63.196733221322106
 10
82.01896680324917
 20
-62.51495194519767
 10
82.00210826912657
 20
-61.82821140033962
 10
82.05264325780902
 20
-61.143125273605484
 10
82.17008508973029
 20
-60.46629131890191
 10
82.35330273584874
 20
-59.80422781720776
 10
82.60053171007529
 20
-59.163310801965075
 10
82.90939106223902
 20
-58.54971265439151
 10
83.27690630793892
 20
-57.969342660075085
 10
83.69953807445461
 20
-57.427790099323566
 10
84.17321618684053
 20
-56.930270419339735
 10
84.69337886593561
 20
-56.48157500661376
 10
85.25501666079032
 20
-56.08602504325205
 10
85.85272069241775
 20
-55.74742989163139
 10
86.48073474425509
 20
-55.469050408156825
 10
87.13301069767572
 20
-55.25356753943192
 10
87.8032667786779
 20
-55.103056503277415
 10
88.48504805480233
 20
-55.01896680324917
 10
89.17178859966039
 20
-55.00210826912657
 10
89.85687472639451
 20
-55.05264325780903
 10
90.53370868109809
 20
-55.1700850897303
 10
91.19577218279224
 20
-55.35330273584874
 10
91.83668919803493
 20
-55.60053171007529
 10
92.45028734560849
 20
-55.90939106223902
 10
93.03065733992491
 20
-56.276906307938916
 10
93.57220990067644
 20
-56.69953807445461
 10
94.06972958066027
 20
-57.17321618684053
 10
94.51842499338625
 20
-57.69337886593561
 10
94.91397495674795
 20
-58.25501666079032
 10
95.2525701083686
 20
-58.85272069241775
 10
95.53094959184317
 20
-59.48073474425509
 10
95.74643246056807
 20
-60.13301069767571
 10
95.89694349672259
 20
-60.80326677867789
 10
95.98103319675083
 20
-61.48504805480233
 10
95.99789173087343
 20
-62.17178859966039
  0
LWPOLYLINE
  5
A4
330
17
100
AcDbEntity
  8
CUT
100
AcDbPolyline
 90
65
 70
1
 10
93.29870492039367
 20
-61.894472717351476
 10
93.26766199877446
 20
-61.47363409664337
 10
93.19551915916567
 20
-61.05786466732546
 10
93.08297117655006
 20
-60.65116851628477
 10
92.93110194952519
 20
-60.25746234977854
 10
92.74137406176746
 20
-59.88053777341193
 10
92.51561469655181
 20
-59.52402477690327
 10
92.25599803997788
 20
-59.19135677529876
 10
91.96502434236939
 20
-58.88573754330869
 10
91.64549583949669
 20
-58.61011036120559
 10
91.30048976551451
 20
-58.36712966942626
 10
90.93332871751481
 20
-58.159135504859286
 10
90.54754865710045
 20
-57.988130965010626
 10
90.14686485714206
 20
-57.85576291707961
 10
89.7351361216693
 20
-57.763306137727554
 10
89.31632762347857
 20
-57.71165103628163
 10
88.89447271735148
 20
-57.701295079606325
 10
88.47363409664337
 20
-57.73233800122555
 10
88.05786466732546
 20
-57.80448084083433
 10
87.65116851628477
 20
-57.91702882344994
 10
87.25746234977854
 20
-58.06889805047482
 10
86.88053777341193
 20
-58.25862593823254
 10
86.52402477690326
 20
-58.48438530344819
 10
86.19135677529876
 20
-58.74400196002212
 10
85.8857375433087
 20
-59.03497565763061
 10
85.6101103612056
 20
-59.3545041605033
 10
85.36712966942626
 20
-59.69951023448548
 10
85.15913550485928
 20
-60.06667128248519
 10
84.98813096501063
 20
-60.45245134289955
 10
84.8557629170796
 20
-60.85313514285794
 10
84.76330613772755
 20
-61.26486387833071
 10
84.71165103628164
 20
-61.68367237652143
 10
84.70129507960633
 20
-62.105527282648524
 10
84.73233800122554
 20
-62.52636590335663
 10
84.80448084083433
 20
-62.94213533267454
 10
84.91702882344994
 20
-63.34883148371523
 10
85.06889805047481
 20
-63.74253765022146
 10
85.25862593823254
 20
-64.11946222658807
 10
85.48438530344819
 20
-64.47597522309674
 10
85.74400196002212
 20
-64.80864322470124
 10
86.03497565763061
 20
-65.1142624566913
 10
86.35450416050331
 20
-65.3898896387944
 10
86.69951023448549
 20
-65.63287033057374
 10
87.06667128248519
 20
-65.84086449514072
 10
87.45245134289955
 20
-66.01186903498937
 10
87.85313514285794
 20
-66.1442370829204
 10
88.2648638783307
 20
-66.23669386227245
 10
88.68367237652143
 20
-66.28834896371836
 10
89.10552728264852
 20
-66.29870492039367
 10
89.52636590335663
 20
-66.26766199877446
 10
89.94213533267454
 20
-66.19551915916567
 10
90.34883148371523
 20
-66.08297117655006
 10
90.74253765022145
 20
-65.93110194952519
 10
91.11946222658807
 20
-65.74137406176746
 10
91.47597522309674
 20
-65.51561469655181
 10
91.80864322470124
 20
-65.25599803997788
 10
92.1142624566913
 20
-64.96502434236939
 10
92.3898896387944
 20
-64.64549583949669
 10
92.63287033057374
 20
-64.30048976551451
 10
92.84086449514072
 20
-63.93332871751481
 10
93.01186903498937
 20
-63.54754865710045
 10
93.1442370829204
 20
-63.14686485714206
 10
93.23669386227245
 20
-62.73513612166929
 10
93.28834896371836
 20
-62.31632762347857
 10
93.29870492039367
 20
-61.894472717351476
  0
LWPOLYLINE
  5
A5
330
17
100
AcDbEntity
  8
CUT
100
AcDbPolyline
 90
65
 70
1
 10
112.99789173087343
 20
-62.17178859966039
 10
112.94735674219098
 20
-62.856874726394516
 10
112.82991491026971
 20
-63.53370868109809
 10
112.64669726415126
 20
-64.19577218279224
 10
112.39946828992471
 20
-64.83668919803493
 10
112.09060893776098
 20
-65.45028734560849
 10
111.72309369206108
 20
-66.03065733992491
 10
111.30046192554539
 20
-66.57220990067644
 10
110.82678381315947
 20
-67.06972958066027
 10
110.30662113406439
 20
-67.51842499338625
 10
109.74498333920968
 20
-67.91397495674795
 10
109.14727930758225
 20
-68.2525701083686
 10
108.51926525574491
 20
-68.53094959184317
 10
107.86698930232428
 20
-68.74643246056807
 10
107.1967332213221
 20
-68.89694349672259
 10
106.51495194519767
 20
-68.98103319675083
 10
105.82821140033961
 20
-68.99789173087343
 10
105.14312527360549
 20
-68.94735674219098
 10
104.46629131890191
 20
-68.82991491026971
 10
103.80422781720776
 20
-68.64669726415126
 10
103.16331080196507
 20
-68.39946828992471
 10
102.54971265439151
 20
-68.09060893776098
 10
101.96934266007509
 20
-67.72309369206108
 10
101.42779009932356
 20
-67.30046192554539
 10
100.93027041933973
 20
-66.82678381315947
 10
100.48157500661375
 20
-66.30662113406439
 10
100.08602504325205
 20
-65.74498333920968
 10
99.7474298916314
 20
-65.14727930758225
 10
99.46905040815683
 20
-64.51926525574491
 10
99.25356753943193
 20
-63.86698930232429
 10
99.10305650327741
 20
-63.196733221322106
 10
99.01896680324917
 20
-62.51495194519767
 10
99.00210826912657
 20
-61.82821140033962
 10
99.05264325780902
 20
-61.143125273605484
 10
99.17008508973029
 20
-60.46629131890191
 10
99.35330273584874
 20
-59.80422781720776
 10
99.60053171007529
 20
-59.163310801965075
 10
99.90939106223902
 20
-58.54971265439151
 10
100.27690630793892
 20
-57.969342660075085
 10
100.69953807445461
 20
-57.427790099323566
 10
101.17321618684053
 20
-56.930270419339735
 10
101.69337886593561
 20
-56.48157500661376
 10
102.25501666079032
 20
-56.08602504325205
 10
102.85272069241775
 20
-55.74742989163139
 10
103.48073474425509
 20
-55.469050408156825
 10
104.13301069767572
 20
-55.25356753943192
 10
104.8032667786779
 20
-55.103056503277415
 10
105.48504805480233
 20
-55.01896680324917
 10
106.17178859966039
 20
-55.00210826912657
 10
106.85687472639451
 20
-55.05264325780903
 10
107.53370868109809
 20
-55.1700850897303
 10
108.19577218279224
 20
-55.35330273584874
 10
108.83668919803493
 20
-55.60053171007529
 10
109.45028734560849
 20
-55.90939106223902
 10
110.03065733992491
 20
-56.276906307938916
 10
110.57220990067644
 20
-56.69953807445461
 10
111.06972958066027
 20
-57.17321618684053
 10
111.51842499338625
 20
-57.69337886593561
 10
111.91397495674795
 20
-58.25501666079032
 10
112.2525701083686
 20
-58.85272069241775
 10
112.53094959184317
 20
-59.48073474425509
 10
112.74643246056807
 20
-60.13301069767571
 10
112.89694349672259
 20
-60.80326677867789
 10
112.98103319675083
 20
-61.48504805480233
 10
112.99789173087343
 20
-62.17178859966039
  0
LWPOLYLINE
  5
A6
330
17
100
AcDbEntity
  8
CUT
100
AcDbPolyline
 90
65
 70
1
 10
110.29870492039367
 20
-61.894472717351476
 10
110.26766199877446
 20
-61.47363409664337
 10
110.19551915916567
 20
-61.05786466732546
 10
110.08297117655006
 20
-60.65116851628477
 10
109.93110194952519
 20
-60.25746234977854
 10
109.74137406176746
 20
-59.88053777341193
 10
109.51561469655181
 20
-59.52402477690327
 10
109.25599803997788
 20
-59.19135677529876
 10
108.96502434236939
 20
-58.88573754330869
 10
108.64549583949669
 20
-58.61011036120559
 10
108.30048976551451
 20
-58.36712966942626
 10
107.93332871751481
 20
-58.159135504859286
 10
107.54754865710045
 20
-57.988130965010626
 10
107.14686485714206
 20
-57.85576291707961
 10
106.7351361216693
 20
-57.763306137727554
 10
106.31632762347857
 20
-57.71165103628163
 10
105.89447271735148
 20
-57.701295079606325
 10
105.47363409664337
 20
-57.73233800122555
 10
105.05786466732546
 20
-57.80448084083433
 10
104.65116851628477
 20
-57.91702882344994
 10
104.25746234977854
 20
-58.06889805047482
 10
103.88053777341193
 20
-58.25862593823254
 10
103.52402477690326
 20
-58.48438530344819
 10
103.19135677529876
 20
-58.74400196002212
 10
102.8857375433087
 20
-59.03497565763061
 10
102.6101103612056
 20
-59.3545041605033
 10
102.36712966942626
 20
-59.69951023448548
 10
102.15913550485928
 20
-60.06667128248519
 10
101.98813096501063
 20
-60.45245134289955
 10
101.8557629170796
 20
-60.85313514285794
 10
101.76330613772755
 20
-61.26486387833071
 10
101.71165103628164
 20
-61.68367237652143
 10
101.70129507960633
 20
-62.105527282648524
 10
101.73233800122554
 20
-62.52636590335663
 10
101.80448084083433
 20
-62.94213533267454
 10
101.91702882344994
 20
-63.34883148371523
 10
102.06889805047481
 20
-63.74253765022146
 10
102.25862593823254
 20
-64.11946222658807
 10
102.48438530344819
 20
-64.47597522309674
 10
102.74400196002212
 20
-64.80864322470124
 10
103.03497565763061
 20
-65.1142624566913
 10
103.35450416050331
 20
-65.3898896387944
 10
103.69951023448549
 20
-65.63287033057374
 10
104.06667128248519
 20
-65.84086449514072
 10
104.45245134289955
 20
-66.01186903498937
 10
104.85313514285794
 20
-66.1442370829204
 10
105.2648638783307
 20
-66.23669386227245
 10
105.68367237652143
 20
-66.28834896371836
 10
106.10552728264852
 20
-66.29870492039367
 10
106.52636590335663
 20
-66.26766199877446
 10
106.94213533267454
 20
-66.19551915916567
 10
107.34883148371523
 20
-66.08297117655006
 10
107.74253765022145
 20
-65.93110194952519
 10
108.11946222658807
 20
-65.74137406176746
 10
108.47597522309674
 20
-65.51561469655181
 10
108.80864322470124
 20
-65.25599803997788
 10
109.1142624566913
 20
-64.96502434236939
 10
109.3898896387944
 20
-64.64549583949669
 10
109.63287033057374
 20
-64.30048976551451
 10
109.84086449514072
 20
-63.93332871751481
 10
110.01186903498937
 20
-63.54754865710045
 10
110.1442370829204
 20
-63.14686485714206
 10
110.23669386227245
 20
-62.73513612166929
 10
110.28834896371836
 20
-62.31632762347857
 10
110.29870492039367
 20
-61.894472717351476
  0
LWPOLYLINE
  5
A7
330
17
100
AcDbEntity
  8
CUT
100
AcDbPolyline
 90
65
 70
1
 10
129.99789173087342
 20
-62.17178859966039
 10
129.94735674219098
 20
-62.856874726394516
 10
129.8299149102697
 20
-63.53370868109809
 10
129.64669726415127
 20
-64.19577218279224
 10
129.39946828992473
 20
-64.83668919803493
 10
129.09060893776098
 20
-65.45028734560849
 10
128.7230936920611
 20
-66.03065733992491
 10
128.3004619255454
 20
-66.57220990067644
 10
127.82678381315947
 20
-67.06972958066027
 10
127.30662113406439
 20
-67.51842499338625
 10
126.74498333920968
 20
-67.91397495674795
 10
126.14727930758225
 20
-68.2525701083686
 10
125.51926525574491
 20
-68.53094959184317
 10
124.86698930232428
 20
-68.74643246056807
 10
124.1967332213221
 20
-68.89694349672259
 10
123.51495194519767
 20
-68.98103319675083
 10
122.82821140033961
 20
-68.99789173087343
 10
122.14312527360549
 20
-68.94735674219098
 10
121.46629131890191
 20
-68.82991491026971
 10
120.80422781720776
 20
-68.64669726415126
 10
120.16331080196507
 20
-68.39946828992471
 10
119.54971265439151
 20
-68.09060893776098
 10
118.96934266007509
 20
-67.72309369206108
 10
118.42779009932356
 20
-67.30046192554539
 10
117.93027041933973
 20
-66.82678381315947
 10
117.48157500661375
 20
-66.30662113406439
 10
117.08602504325205
 20
-65.74498333920968
 10
116.7474298916314
 20
-65.14727930758225
 10
116.46905040815683
 20
-64.51926525574491
 10
116.25356753943193
 20
-63.86698930232429
 10
116.10305650327741
 20
-63.196733221322106
 10
116.01896680324917
 20
-62.51495194519767
 10
116.00210826912657
 20
-61.82821140033962
 10
116.05264325780902
 20
-61.143125273605484
 10
116.17008508973029
 20
-60.46629131890191
 10
116.35330273584874
 20
-59.80422781720776
 10
116.60053171007529
 20
-59.163310801965075
 10
116.90939106223902
 20
-58.54971265439151
 10
117.27690630793892
 20
-57.969342660075085
 10
117.69953807445461
 20
-57.427790099323566
 10
118.17321618684053
 20
-56.930270419339735
 10
118.69337886593561
 20
-56.48157500661376
 10
119.25501666079032
 20
-56.08602504325205
 10
119.85272069241775
 20
-55.74742989163139
 10
120.48073474425509
 20
-55.469050408156825
 10
121.13301069767572
 20
-55.25356753943192
 10
121.8032667786779
 20
-55.103056503277415
 10
122.48504805480233
 20
-55.01896680324917
 10
123.17178859966039
 20
-55.00210826912657
 10
123.85687472639451
 20
-55.05264325780903
 10
124.53370868109809
 20
-55.1700850897303
 10
125.19577218279224
 20
-55.35330273584874
 10
125.83668919803493
 20
-55.60053171007529
 10
126.45028734560849
 20
-55.90939106223902
 10
127.03065733992491
 20
-56.276906307938916
 10
127.57220990067644
 20
-56.69953807445461
 10
128.06972958066027
 20
-57.17321618684053
 10
128.51842499338625
 20
-57.69337886593561
 10
128.91397495674795
 20
-58.25501666079032
 10
129.25257010836862
 20
-58.85272069241775
 10
129.53094959184318
 20
-59.48073474425509
 10
129.7464324605681
 20
-60.13301069767571
 10
129.8969434967226
 20
-60.80326677867789
 10
129.98103319675084
 20
-61.48504805480233
 10
129.99789173087342
 20
-62.17178859966039
  0
LWPOLYLINE
  5
A8
330
17
100
AcDbEntity
  8
CUT
100
AcDbPolyline
 90
65
 70
1
 10
127.29870492039367
 20
-61.894472717351476
 10
127.26766199877446
 20
-61.47363409664337
 10
127.19551915916567
 20
-61.05786466732546
 10
127.08297117655006
 20
-60.65116851628477
 10
126.93110194952519
 20
-60.25746234977854
 10
126.74137406176746
 20
-59.88053777341193
 10
126.51561469655181
 20
-59.52402477690327
 10
126.25599803997788
 20
-59.19135677529876
 10
125.96502434236939
 20
-58.88573754330869
 10
125.64549583949669
 20
-58.61011036120559
 10
125.30048976551451
 20
-58.36712966942626
 10
124.93332871751481
 20
-58.159135504859286
 10
124.54754865710045
 20
-57.988130965010626
 10
124.14686485714206
 20
-57.85576291707961
 10
123.7351361216693
 20
-57.763306137727554
 10
123.31632762347857
 20
-57.71165103628163
 10
122.89447271735148
 20
-57.701295079606325
 10
122.47363409664337
 20
-57.73233800122555
 10
122.05786466732546
 20
-57.80448084083433
 10
121.65116851628477
 20
-57.91702882344994
 10
121.25746234977854
 20
-58.06889805047482
 10
120.88053777341193
 20
-58.25862593823254
 10
120.52402477690326
 20
-58.48438530344819
 10
120.19135677529876
 20
-58.74400196002212
 10
119.8857375433087
 20
-59.03497565763061
 10
119.6101103612056
 20
-59.3545041605033
 10
119.36712966942626
 20
-59.69951023448548
 10
119.15913550485928
 20
-60.06667128248519
 10
118.98813096501063
 20
-60.45245134289955
 10
118.8557629170796
 20
-60.85313514285794
 10
118.76330613772755
 20
-61.26486387833071
 10
118.71165103628164
 20
-61.68367237652143
 10
118.70129507960633
 20
-62.105527282648524
 10
118.73233800122554
 20
-62.52636590335663
 10
118.80448084083433
 20
-62.94213533267454
 10
118.91702882344994
 20
-63.34883148371523
 10
119.06889805047481
 20
-63.74253765022146
 10
119.25862593823254
 20
-64.11946222658807
 10
119.48438530344819
 20
-64.47597522309674
 10
119.74400196002212
 20
-64.80864322470124
 10
120.03497565763061
 20
-65.1142624566913
 10
120.35450416050331
 20
-65.3898896387944
 10
120.69951023448549
 20
-65.63287033057374
 10
121.06667128248519
 20
-65.84086449514072
 10
121.45245134289955
 20
-66.01186903498937
 10
121.85313514285794
 20
-66.1442370829204
 10
122.2648638783307
 20
-66.23669386227245
 10
122.68367237652143
 20
-66.28834896371836
 10
123.10552728264852
 20
-66.29870492039367
 10
123.52636590335663
 20
-66.26766199877446
 10
123.94213533267454
 20
-66.19551915916567
 10
124.34883148371523
 20
-66.08297117655006
 10
124.74253765022145
 20
-65.93110194952519
 10
125.11946222658807
 20
-65.74137406176746
 10
125.47597522309674
 20
-65.51561469655181
 10
125.80864322470124
 20
-65.25599803997788
 10
126.1142624566913
 20
-64.96502434236939
 10
126.3898896387944
 20
-64.64549583949669
 10
126.63287033057374
 20
-64.30048976551451
 10
126.84086449514072
 20
-63.93332871751481
 10
127.01186903498937
 20
-63.54754865710045
 10
127.1442370829204
 20
-63.14686485714206
 10
127.23669386227245
 20
-62.73513612166929
 10
127.28834896371836
 20
-62.31632762347857
 10
127.29870492039367
 20
-61.894472717351476
  0
ENDSEC
  0
SECTION
  2
OBJECTS
  0
DICTIONARY
  5
A
330
0
100
AcDbDictionary
281
1
  3
ACAD_COLOR
350
B
  3
ACAD_GROUP
350
C
  3
ACAD_LAYOUT
350
D
  3
ACAD_MATERIAL
350
E
  3
ACAD_MLEADERSTYLE
350
F
  3
ACAD_MLINESTYLE
350
10
  3
ACAD_PLOTSETTINGS
350
11
  3
ACAD_PLOTSTYLENAME
350
12
  3
ACAD_SCALELIST
350
14
  3
ACAD_TABLESTYLE
350
15
  3
ACAD_VISUALSTYLE
350
16
  3
EZDXF_META
350
2D
  0
DICTIONARY
  5
B
330
A
100
AcDbDictionary
281
1
  0
DICTIONARY
  5
C
330
A
100
AcDbDictionary
281
1
  0
DICTIONARY
  5
D
330
A
100
AcDbDictionary
281
1
  3
Model
350
1A
  3
Layout1
350
1E
  0
DICTIONARY
  5
E
330
A
100
AcDbDictionary
281
1
  3
ByBlock
350
1F
  3
ByLayer
350
20
  3
Global
350
21
  0
DICTIONARY
  5
F
330
A
100
AcDbDictionary
281
1
  3
Standard
350
2C
  0
DICTIONARY
  5
10
330
A
100
AcDbDictionary
281
1
  3
Standard
350
22
  0
DICTIONARY
  5
11
330
A
100
AcDbDictionary
281
1
  0
ACDBDICTIONARYWDFLT
  5
12
330
A
100
AcDbDictionary
281
1
  3
Normal
350
13
100
AcDbDictionaryWithDefault
340
13
  0
ACDBPLACEHOLDER
  5
13
330
12
  0
DICTIONARY
  5
14
330
A
100
AcDbDictionary
281
1
  0
DICTIONARY
  5
15
330
A
100
AcDbDictionary
281
1
  0
DICTIONARY
  5
16
330
A
100
AcDbDictionary
281
1
  3
2dWireframe
350
5A
  3
Basic
350
5B
  3
Brighten
350
5C
  3
ColorChange
350
5D
  3
Conceptual
350
5E
  3
Dim
350
5F
  3
EdgeColorOff
350
60
  3
Facepattern
350
61
  3
Flat
350
62
  3
FlatWithEdges
350
63
  3
Gouraud
350
64
  3
GouraudWithEdges
350
65
  3
Hidden
350
66
  3
JitterOff
350
67
  3
Linepattern
350
68
  3
Modeling
350
69
  3
OverhangOff
350
6A
  3
Realistic
350
6B
  3
Shaded
350
6C
  3
Shaded with edges
350
6D
  3
Shades of Gray
350
6E
  3
Sketchy
350
6F
  3
Thicken
350
70
  3
Wireframe
350
71
  3
X-Ray
350
72
  0
LAYOUT
  5
1A
330
D
100
AcDbPlotSettings
  1

  4
A3
  6

 40
7.5
 41
20.0
 42
7.5
 43
20.0
 44
420.0
 45
297.0
 46
0.0
 47
0.0
 48
0.0
 49
0.0
140
0.0
141
0.0
142
1.0
143
1.0
 70
1024
 72
1
 73
0
 74
5
  7

 75
16
 76
0
 77
2
 78
300
147
1.0
148
0.0
149
0.0
100
AcDbLayout
  1
Model
 70
1
 71
0
 10
0.0
 20
0.0
 11
420.0
 21
297.0
 12
0.0
 22
0.0
 32
0.0
 14
1e+20
 24
1e+20
 34
1e+20
 15
-1e+20
 25
-1e+20
 35
-1e+20
146
0.0
 13
0.0
 23
0.0
 33
0.0
 16
1.0
 26
0.0
 36
0.0
 17
0.0
 27
1.0
 37
0.0
 76
1
330
17
  0
LAYOUT
  5
1E
330
D
100
AcDbPlotSettings
  1

  4
A3
  6

 40
7.5
 41
20.0
 42
7.5
 43
20.0
 44
420.0
 45
297.0
 46
0.0
 47
0.0
 48
0.0
 49
0.0
140
0.0
141
0.0
142
1.0
143
1.0
 70
0
 72
1
 73
0
 74
5
  7

 75
16
 76
0
 77
2
 78
300
147
1.0
148
0.0
149
0.0
100
AcDbLayout
  1
Layout1
 70
1
 71
1
 10
0.0
 20
0.0
 11
420.0
 21
297.0
 12
0.0
 22
0.0
 32
0.0
 14
1e+20
 24
1e+20
 34
1e+20
 15
-1e+20
 25
-1e+20
 35
-1e+20
146
0.0
 13
0.0
 23
0.0
 33
0.0
 16
1.0
 26
0.0
 36
0.0
 17
0.0
 27
1.0
 37
0.0
 76
1
330
1B
  0
MATERIAL
  5
1F
102
{ACAD_REACTORS
330
E
102
}
330
E
100
AcDbMaterial
  1
ByBlock
  2

 70
0
 40
1.0
 71
1
 41
1.0
 91
-1023410177
 42
1.0
 72
1
  3

 73
1
 74
1
 75
1
 44
0.5
 73
0
 45
1.0
 46
1.0
 77
1
  4

 78
1
 79
1
170
1
 48
1.0
171
1
  6

172
1
173
1
174
1
140
1.0
141
1.0
175
1
  7

176
1
177
1
178
1
143
1.0
179
1
  8

270
1
271
1
272
1
145
1.0
146
1.0
273
1
  9

274
1
275
1
276
1
 42
1.0
 72
1
  3

 73
1
 74
1
 75
1
 94
63
  0
MATERIAL
  5
20
102
{ACAD_REACTORS
330
E
102
}
330
E
100
AcDbMaterial
  1
ByLayer
  2

 70
0
 40
1.0
 71
1
 41
1.0
 91
-1023410177
 42
1.0
 72
1
  3

 73
1
 74
1
 75
1
 44
0.5
 73
0
 45
1.0
 46
1.0
 77
1
  4

 78
1
 79
1
170
1
 48
1.0
171
1
  6

172
1
173
1
174
1
140
1.0
141
1.0
175
1
  7

176
1
177
1
178
1
143
1.0
179
1
  8

270
1
271
1
272
1
145
1.0
146
1.0
273
1
  9

274
1
275
1
276
1
 42
1.0
 72
1
  3

 73
1
 74
1
 75
1
 94
63
  0
MATERIAL
  5
21
102
{ACAD_REACTORS
330
E
102
}
330
E
100
AcDbMaterial
  1
Global
  2

 70
0
 40
1.0
 71
1
 41
1.0
 91
-1023410177
 42
1.0
 72
1
  3

 73
1
 74
1
 75
1
 44
0.5
 73
0
 45
1.0
 46
1.0
 77
1
  4

 78
1
 79
1
170
1
 48
1.0
171
1
  6

172
1
173
1
174
1
140
1.0
141
1.0
175
1
  7

176
1
177
1
178
1
143
1.0
179
1
  8

270
1
271
1
272
1
145
1.0
146
1.0
273
1
  9

274
1
275
1
276
1
 42
1.0
 72
1
  3

 73
1
 74
1
 75
1
 94
63
  0
MLINESTYLE
  5
22
102
{ACAD_REACTORS
330
10
102
}
330
10
100
AcDbMlineStyle
  2
Standard
 70
0
  3

 62
256
 51
90.0
 52
90.0
 71
2
 49
0.5
 62
256
  6
BYLAYER
 49
-0.5
 62
256
  6
BYLAYER
  0
MLEADERSTYLE
  5
2C
102
{ACAD_REACTORS
330
F
102
}
330
F
100
AcDbMLeaderStyle
179
2
170
2
171
1
172
0
 90
2
 40
0.0
 41
0.0
173
1
 91
-1056964608
 92
-2
290
1
 42
2.0
291
1
 43
8.0
  3
Standard
 44
4.0
300

342
29
174
1
175
1
176
0
178
1
 93
-1056964608
 45
4.0
292
0
297
0
 46
4.0
 94
-1056964608
 47
1.0
 49
1.0
140
1.0
294
1
141
0.0
177
0
142
1.0
295
0
296
0
143
3.75
271
0
272
9
273
9
  0
DICTIONARY
  5
2D
330
A
100
AcDbDictionary
280
1
281
1
  3
CREATED_BY_EZDXF
350
2E
  3
WRITTEN_BY_EZDXF
350
AB
  0
DICTIONARYVAR
  5
2E
330
2D
100
DictionaryVariables
280
0
  1
1.4.4 @ 2026-09-30T05:57:22.559319+00:00
  0
VISUALSTYLE
  5
5A
102
{ACAD_REACTORS
330
16
102
}
330
16
100
AcDbVisualStyle
  2
2dWireframe
 70
4
 90
0
 40
0.6
 62
7
290
0
291
0
  0
VISUALSTYLE
  5
5B
102
{ACAD_REACTORS
330
16
102
}
330
16
100
AcDbVisualStyle
  2
Basic
 70
7
 90
1
 40
0.6
 62
7
290
0
291
1
  0
VISUALSTYLE
  5
5C
102
{ACAD_REACTORS
330
16
102
}
330
16
100
AcDbVisualStyle
  2
Brighten
 70
12
 90
2
 40
0.6
 62
7
290
0
291
1
  0
VISUALSTYLE
  5
5D
102
{ACAD_REACTORS
330
16
102
}
330
16
100
AcDbVisualStyle
  2
ColorChange
 70
16
 90
2
 40
0.6
 62
8
290
0
291
1
  0
VISUALSTYLE
  5
5E
102
{ACAD_REACTORS
330
16
102
}
330
16
100
AcDbVisualStyle
  2
Conceptual
 70
9
 90
3
 40
0.6
 62
7
290
0
291
0
  0
VISUALSTYLE
  5
5F
102
{ACAD_REACTORS
330
16
102
}
330
16
100
AcDbVisualStyle
  2
Dim
 70
11
 90
2
 40
0.6
 62
7
290
0
291
1
  0
VISUALSTYLE
  5
60
102
{ACAD_REACTORS
330
16
102
}
330
16
100
AcDbVisualStyle
  2
EdgeColorOff
 70
22
 90
2
 40
0.6
 62
7
290
0
291
1
  0
VISUALSTYLE
  5
61
102
{ACAD_REACTORS
330
16
102
}
330
16
100
AcDbVisualStyle
  2
Facepattern
 70
15
 90
2
 40
0.6
 62
7
290
0
291
1
  0
VISUALSTYLE
  5
62
102
{ACAD_REACTORS
330
16
102
}
330
16
100
AcDbVisualStyle
  2
Flat
 70
0
 90
2
 40
0.6
 62
7
290
0
291
1
  0
VISUALSTYLE
  5
63
102
{ACAD_REACTORS
330
16
102
}
330
16
100
AcDbVisualStyle
  2
FlatWithEdges
 70
1
 90
2
 40
0.6
 62
7
290
0
291
1
  0
VISUALSTYLE
  5
64
102
{ACAD_REACTORS
330
16
102
}
330
16
100
AcDbVisualStyle
  2
Gouraud
 70
2
 90
2
 40
0.6
 62
7
290
0
291
1
  0
VISUALSTYLE
  5
65
102
{ACAD_REACTORS
330
16
102
}
330
16
100
AcDbVisualStyle
  2
GouraudWithEdges
 70
3
 90
2
 40
0.6
 62
7
290
0
291
1
  0
VISUALSTYLE
  5
66
102
{ACAD_REACTORS
330
16
102
}
330
16
100
AcDbVisualStyle
  2
Hidden
 70
6
 90
1
 40
0.6
 62
7
290
0
291
0
  0
VISUALSTYLE
  5
67
102
{ACAD_REACTORS
330
16
102
}
330
16
100
AcDbVisualStyle
  2
JitterOff
 70
20
 90
2
 40
0.6
 62
7
290
0
291
1
  0
VISUALSTYLE
  5
68
102
{ACAD_REACTORS
330
16
102
}
330
16
100
AcDbVisualStyle
  2
Linepattern
 70
14
 90
2
 40
0.6
 62
7
290
0
291
1
  0
VISUALSTYLE
  5
69
102
{ACAD_REACTORS
330
16
102
}
330
16
100
AcDbVisualStyle
  2
Modeling
 70
10
 90
2
 40
0.6
 62
7
290
0
291
0
  0
VISUALSTYLE
  5
6A
102
{ACAD_REACTORS
330
16
102
}
330
16
100
AcDbVisualStyle
  2
OverhangOff
 70
21
 90
2
 40
0.6
 62
7
290
0
291
1
  0
VISUALSTYLE
  5
6B
102
{ACAD_REACTORS
330
16
102
}
330
16
100
AcDbVisualStyle
  2
Realistic
 70
8
 90
2
 40
0.6
 62
7
290
0
291
0
  0
VISUALSTYLE
  5
6C
102
{ACAD_REACTORS
330
16
102
}
330
16
100
AcDbVisualStyle
  2
Shaded
 70
27
 90
2
 40
0.6
 62
7
290
0
291
0
  0
VISUALSTYLE
  5
6D
102
{ACAD_REACTORS
330
16
102
}
330
16
100
AcDbVisualStyle
  2
Shaded with edges
 70
26
 90
2
 40
0.6
 62
7
290
0
291
0
  0
VISUALSTYLE
  5
6E
102
{ACAD_REACTORS
330
16
102
}
330
16
100
AcDbVisualStyle
  2
Shades of Gray
 70
23
 90
2
 40
0.6
 62
7
290
0
291
0
  0
VISUALSTYLE
  5
6F
102
{ACAD_REACTORS
330
16
102
}
330
16
100
AcDbVisualStyle
  2
Sketchy
 70
24
 90
1
 40
0.6
 62
7
290
0
291
0
  0
VISUALSTYLE
  5
70
102
{ACAD_REACTORS
330
16
102
}
330
16
100
AcDbVisualStyle
  2
Thicken
 70
13
 90
2
 40
0.6
 62
7
290
0
291
1
  0
VISUALSTYLE
  5
71
102
{ACAD_REACTORS
330
16
102
}
330
16
100
AcDbVisualStyle
  2
Wireframe
 70
5
 90
0
 40
0.6
 62
7
290
0
291
0
  0
VISUALSTYLE
  5
72
102
{ACAD_REACTORS
330
16
102
}
330
16
100
AcDbVisualStyle
  2
X-Ray
 70
25
 90
2
 40
0.5
 62
7
290
0
291
0
  0
DICTIONARYVAR
  5
AB
330
2D
100
DictionaryVariables
280
0
  1
1.4.4 @ 2026-09-30T05:57:22.587021+00:00
  0
ENDSEC
  0
EOF
